<?xml version="1.0" encoding="utf-8"?>
<!-- Generator: Adobe Illustrator 28.4.1, SVG Export Plug-In . SVG Version: 6.00 Build 0)  -->
<svg version="1.1" id="a" xmlns="http://www.w3.org/2000/svg" xmlns:xlink="http://www.w3.org/1999/xlink" x="0px" y="0px"
	 viewBox="0 0 160 160" style="enable-background:new 0 0 160 160;" xml:space="preserve">
<path class="st0" d="M80,66.1c-7.8,0-14.1,6.2-14.1,13.9c0,7.7,6.3,13.9,14.1,13.9S94,87.7,94,80C94,72.3,87.7,66.1,80,66.1z"/>
<path class="st0" d="M142.9,0H17.1C7.7,0,0,7.7,0,17.1v125.7c0,9.5,7.7,17.1,17.1,17.1h125.7c9.5,0,17.1-7.7,17.1-17.1V17.1
	C160,7.7,152.3,0,142.9,0z M120.8,83.7c0,2.5-2,4.4-4.5,4.4H112c-0.8,3.1-2.1,6.1-3.7,8.8l3.1,3.1c0.8,0.8,1.3,2,1.3,3.1
	c0,1.2-0.5,2.3-1.3,3.1l-5.2,5.2c-0.8,0.8-2,1.3-3.1,1.3c-1.2,0-2.3-0.5-3.1-1.3l-3.2-3.2c-2.7,1.5-5.5,2.7-8.6,3.5v4.6
	c0,2.5-2,4.4-4.4,4.4h-7.3c-2.5,0-4.4-2-4.4-4.4v-4.6c-3.1-0.8-6-2-8.6-3.5l-3.2,3.2c-0.8,0.8-2,1.3-3.1,1.3s-2.3-0.5-3.1-1.3
	l-5.2-5.2c-0.8-0.8-1.3-2-1.3-3.1s0.5-2.3,1.3-3.1l3.1-3.1c-1.6-2.7-2.9-5.6-3.7-8.8h-4.3c-2.5,0-4.4-1.9-4.4-4.4v-7.3
	c0-2.4,2-4.4,4.4-4.4H48c0.8-3.1,2.1-6.1,3.7-8.7l-3.1-3.1c-0.8-0.8-1.3-2-1.3-3.1c0-1.2,0.5-2.3,1.3-3.1l5.2-5.2
	c1.7-1.7,4.6-1.7,6.3,0l3.2,3.2c2.7-1.5,5.5-2.7,8.6-3.5v-4.6c0-2.5,1.9-4.5,4.4-4.5h7.3c2.5,0,4.4,2,4.4,4.5v4.6
	c3.1,0.8,6,2,8.6,3.5l3.2-3.2c1.7-1.7,4.6-1.7,6.3,0l5.2,5.2c0.8,0.8,1.3,2,1.3,3.1c0,1.2-0.5,2.3-1.3,3.1l-3.1,3.1
	c1.6,2.7,2.9,5.6,3.7,8.7h4.3c2.5,0,4.5,2,4.5,4.4L120.8,83.7L120.8,83.7z" fill="#262626"/>
</svg>
