<?xml version="1.0" encoding="UTF-8"?><svg id="a" xmlns="http://www.w3.org/2000/svg" viewBox="0 0 160 160"><polygon points="69.9786 95.0475 96.1024 80.031 69.9786 64.9525 69.9786 95.0475" style="fill:#fff;"/><path d="M142.8568,0H17.1428C7.6786,0,0,7.6785,0,17.1428v125.7141C0,152.3214,7.6786,160,17.1428,160h125.714c9.4646,0,17.1432-7.6786,17.1432-17.1431V17.1428c0-9.4643-7.6786-17.1428-17.1432-17.1428Zm-12.6262,80.0931s0,16.3195-2.1097,24.1381c-1.1169,4.3436-4.5298,7.6944-8.8114,8.8734-7.8804,2.0477-39.3405,2.0477-39.3405,2.0477,0,0-31.3361,0-39.2787-2.1098-4.2815-1.179-7.6943-4.5919-8.8734-8.8734-2.0477-7.7565-2.0477-24.1381-2.0477-24.1381,0,0,0-16.3196,2.0477-24.2001,1.1791-4.2816,4.6539-7.7564,8.8734-8.9354,7.8805-2.0477,39.2787-2.0477,39.2787-2.0477,0,0,31.4601,0,39.3405,2.1718,4.2816,1.1169,7.6945,4.5297,8.8114,8.8113,2.1719,7.8806,2.1097,24.2622,2.1097,24.2622Z" style="fill:#fff;"/></svg>