<?xml version="1.0" encoding="UTF-8"?><svg id="a" xmlns="http://www.w3.org/2000/svg" viewBox="0 0 160 160"><path d="M142.8568,0H17.1429C7.6785,0,0,7.6785,0,17.1428v125.7141C0,152.3214,7.6785,160,17.1429,160h125.7139c9.4646,0,17.1433-7.6786,17.1433-17.1431V17.1428c0-9.4643-7.6787-17.1428-17.1433-17.1428Zm-27.9309,58.6256H59.5865l1.3223,12.8351h52.7013c-.7725,11.2433-3.1093,35.0646-3.9669,45.9037l-29.6006,8.3322v.0251l-.0654,.0313-29.6204-10.4222-2.0292-24.6173h14.5189l1.0276,13.2393,16.1292,6.0133h.0393l16.103-5.7751,1.656-19.895H47.6795c-.2422-2.5727-3.358-35.9891-3.9014-38.5053H116.2219c-.4059,4.2366-.8182,8.5859-1.296,12.8351Z" style="fill:#262626; fill-rule:evenodd;"/></svg>