<?xml version="1.0" encoding="UTF-8"?><svg id="a" xmlns="http://www.w3.org/2000/svg" viewBox="0 0 160 160"><path d="M142.8569,0H17.1429C7.6786,0,0,7.6785,0,17.1428v125.7141C0,152.3214,7.6786,160,17.1429,160h125.7141c9.4645,0,17.1431-7.6786,17.1431-17.1431V17.1428c0-9.4643-7.6786-17.1428-17.1431-17.1428Zm-29.3522,45.7905l-1.4109,13.9052-33.896,14.4931-.0881,.0294h32.7783l-3.7626,43.0971-28.8688,8.4375-29.0451-8.5845-1.8815-21.7248h14.3756l.9407,11.2593,15.4633,3.9102,16.0806-4.5273,1.0878-18.1092-48.8887-.147v-.0297l-.0588,.0297-1.0583-13.6113,32.955-13.7288,1.9109-.7937H44.0081l-1.705-13.9052H113.5047Z" style="fill:#fff;"/></svg>