<?xml version="1.0" encoding="utf-8"?>
<!-- Generator: Adobe Illustrator 28.4.1, SVG Export Plug-In . SVG Version: 6.00 Build 0)  -->
<svg version="1.1" id="a" xmlns="http://www.w3.org/2000/svg" xmlns:xlink="http://www.w3.org/1999/xlink" x="0px" y="0px"
	 viewBox="0 0 160 160" style="enable-background:new 0 0 160 160;" xml:space="preserve">
<path class="st0" d="M142.9,0H17.1C7.7,0,0,7.7,0,17.1v125.7c0,9.5,7.7,17.1,17.1,17.1h125.7c9.5,0,17.1-7.7,17.1-17.1V17.1
	C160,7.7,152.3,0,142.9,0L142.9,0z M62.4,99.8c2.2,2,2.3,5.4,0.3,7.6s-5.4,2.3-7.6,0.3L30.9,85.6c-3.3-3-3.3-8.2,0-11.2l24.2-22.2
	c2.2-2,5.6-1.9,7.6,0.3s1.9,5.6-0.3,7.6L40.8,80L62.4,99.8L62.4,99.8z M94,46.7l-17.3,69.2c-0.7,2.9-3.7,4.7-6.6,3.9
	c-2.9-0.7-4.7-3.7-3.9-6.6l17.3-69.2c0.7-2.9,3.7-4.7,6.6-3.9C92.9,40.9,94.7,43.8,94,46.7z M129.1,85.6l-24.2,22.2
	c-2.2,2-5.6,1.9-7.6-0.3c-2-2.2-1.9-5.6,0.3-7.6L119.2,80L97.6,60.2c-2.2-2-2.3-5.4-0.3-7.6c2-2.2,5.4-2.3,7.6-0.3l24.2,22.2
	C132.4,77.4,132.4,82.6,129.1,85.6L129.1,85.6z" fill="#262626"/>
</svg>
