<?xml version="1.0" encoding="UTF-8"?><svg id="a" xmlns="http://www.w3.org/2000/svg" viewBox="0 0 160 160"><path d="M118.3024,56.047l-16.0103-.0312-3.1578-.0062c-.5598-.0011-1.0418,.3947-1.1497,.944-.1487,.7574-.9675,1.1469-1.6667,.82-2.5382-1.1864-5.8125-1.7808-9.9233-1.7888l-1.2935-.0025,.8259-4.206,.8954-4.5598c.1417-.7215-.4099-1.3932-1.1451-1.3946l-4.6469-.009-8.2603-.0161-3.1578-.0062c-.5598-.0011-1.0418,.3947-1.1497,.944l-.6085,3.0986-1.6077,8.1868c-.1607,.8182-1.0894,1.1929-1.7914,.7432-2.9233-1.8727-6.6453-2.8341-11.1377-2.8428l-16.0106-.0312-3.1578-.0062c-.5598-.0011-1.0418,.3947-1.1497,.9439l-.6086,3.0987-7.5031,38.2057-.8955,4.5599c-.1417,.7215,.4099,1.3932,1.1451,1.3946l4.6469,.0091,8.3259,.0162,3.1579,.0062c.5598,.0011,1.0418-.3947,1.1497-.944l.6085-3.0988,1.0147-5.1672c.1078-.5493,.5899-.9451,1.1497-.944l2.0459,.004h.0976c3.6693,.0001,6.6856-.3988,9.2213-1.2195,.5751-.1857,1.1397-.3995,1.6936-.6401,.6049-.2626,1.2524,.2585,1.1253,.9056h0c-.0995,.5067,.2878,.9783,.8041,.9793l5.0694,.0099,8.2603,.0161,3.158,.0061c.5598,.0011,1.0418-.3947,1.1497-.944l.6085-3.0988,3.3731-17.1792c.0757-.3857,.4142-.6636,.8073-.6629l.2682,.0005c.5162,.001,.9035,.4726,.804,.9792l-2.9371,14.9594-.8953,4.5596c-.1417,.7215,.4099,1.3931,1.1451,1.3946l4.6467,.009,3.6444,.0071c.7353,.0015,1.2868,.6732,1.1451,1.3947l-.5527,2.8141-.8955,4.5598c-.1417,.7216,.4099,1.3932,1.1451,1.3947l4.6469,.009,8.3258,.0162,3.158,.0062c.5598,.0011,1.0419-.3947,1.1497-.944l.6084-3.0988,1.0145-5.1671c.1078-.5493,.5899-.9451,1.1497-.944l2.0458,.004h.0973c3.6694,.0001,6.6859-.3989,9.2216-1.2195,2.7218-.8784,5.2189-2.3638,7.4178-4.4137,1.7495-1.6018,3.2231-3.4445,4.3474-5.4468,1.1232-2.0016,1.9292-4.2217,2.3961-6.5995,1.1985-6.0989,.1536-11.0911-3.1058-14.8369-3.1826-3.6575-7.9915-5.5183-14.2934-5.5306Zm-54.3417,24.3018c-.8676,1.5452-1.9992,2.9575-3.3968,4.2374-1.6656,1.5526-3.5146,2.6577-5.5483,3.314-2.0147,.652-4.5743,.9767-7.6816,.9767h-.0878l-7.1317-.014-1.9947,10.1577-8.3259-.0162,7.5031-38.2058,16.0106,.0312c4.8164,.0094,8.3276,1.2802,10.5312,3.8127,2.2033,2.5325,2.8615,6.0626,1.9715,10.5915-.3663,1.8656-.983,3.5707-1.8495,5.1149Zm30.0767,8.6193l-8.3914-.0164,3.319-16.9044c.3777-1.923,.2428-3.2355-.4051-3.9364-.6482-.7009-2.0292-1.0539-4.1425-1.058l-6.602-.0129-4.2977,21.8881-8.2603-.0161,7.5031-38.2058,8.2603,.0161-1.9947,10.1577,7.3588,.0143c4.6302,.009,7.8224,.8235,9.577,2.4412,1.7546,1.6188,2.276,4.2372,1.5665,7.8538l-3.4909,17.7789Zm36.758-13.6074c-.3663,1.8656-.983,3.5707-1.8495,5.1149-.8676,1.5452-1.9993,2.9575-3.3969,4.2373-1.6655,1.5526-3.5146,2.6577-5.5482,3.314-2.0147,.6521-4.5746,.9767-7.6819,.9767h-.0875l-7.1317-.014-1.9944,10.1577-8.3259-.0162,7.5031-38.2058,16.0103,.0312c4.8164,.0094,8.3276,1.2802,10.5312,3.8127,2.2036,2.5325,2.8615,6.0626,1.9715,10.5915Z" style="fill:#fff;"/><path d="M50.143,66.8548l-5.7046-.0111-3.1403,15.9901,5.0645,.0098h.0521c3.3306,0,5.8149-.6273,7.4517-1.8823,1.6456-1.2618,2.7579-3.3708,3.3395-6.3282,.5565-2.8394,.3094-4.8444-.7411-6.0142-1.0519-1.1698-3.1588-1.7579-6.3218-1.7641Z" style="fill:#fff;"/><path d="M115.1281,66.9816l-5.7046-.0111-3.14,15.9901,5.0642,.0099h.0518c3.3306,0,5.8152-.6273,7.452-1.8823,1.6459-1.2618,2.7579-3.3709,3.3395-6.3282,.5568-2.8394,.3097-4.8444-.7411-6.0142-1.0519-1.1697-3.1588-1.7579-6.3219-1.764Z" style="fill:#fff;"/><path d="M142.8569,0H17.1428C7.6785,0,0,7.6785,0,17.1428v125.7141c0,9.4645,7.6785,17.1431,17.1428,17.1431h125.7141c9.4645,0,17.1431-7.6786,17.1431-17.1431V17.1428c0-9.4643-7.6786-17.1428-17.1431-17.1428Zm-62.9313,118.1387c-40.041-.0781-72.4686-17.2169-72.4275-38.2802,.0411-21.063,32.5353-38.0754,72.5762-37.9973,40.041,.0781,72.4688,17.2172,72.4277,38.2802-.0411,21.0632-32.5355,38.0754-72.5765,37.9973Z" style="fill:#fff;"/></svg>