<?xml version="1.0" encoding="UTF-8"?><svg id="a" xmlns="http://www.w3.org/2000/svg" viewBox="0 0 160 160"><path d="M142.8569,0H17.1428C7.6786,0,0,7.6785,0,17.1428v125.7141C0,152.3214,7.6786,160,17.1428,160h125.7141c9.4645,0,17.1431-7.6786,17.1431-17.1431V17.1428c0-9.4643-7.6786-17.1428-17.1431-17.1428Zm-61.1743,42.4146c6.1425-6.1422,14.8079-8.2341,22.6766-6.2918,1.5104,.382,2.0416,2.2577,.9459,3.3538l-12.3508,12.3508,1.8762,11.2719,11.2719,1.8757,12.3508-12.3508c1.0956-1.0956,2.9713-.5811,3.3367,.9131,1.9589,7.8687-.1331,16.5341-6.2918,22.6929-2.158,2.1579-4.6479,3.7514-7.271,4.8969l-3.2208-3.2202c-3.32-3.3201-7.7357-5.1464-12.4335-5.1464-1.3617,0-2.7561,.1663-4.1006,.4813l-13.629-13.6288c-.1162-6.2253,2.1083-12.4672,6.8395-17.1983Zm-26.0464,74.8856c-4.1501,4.15-10.8734,4.15-15.0236,0-4.1501-4.15-4.1501-10.8737,0-15.0238l25.2994-25.3159,9.4125,9.4128c-.8134,3.5024-.4316,7.1047,.83,10.4086l-20.5184,20.5184Zm65.058-7.4539l-8.7486,8.7485c-2.4073,2.424-6.3251,2.424-8.7486,0l-19.4394-19.4393c-3.8348-3.8346-4.5652-9.562-2.3075-14.1767l-17.6963-17.6962h-10.309l-15.9366-21.2491,10.6244-10.6243,21.2488,15.9365v10.3093l17.6962,17.6962c4.6152-2.2743,10.342-1.5275,14.1771,2.3076l19.4394,19.4389c2.4069,2.4073,2.4069,6.3251,0,8.7486Z" style="fill:#262626;"/><path d="M48.1327,105.7959c-2.2079,0-3.9841,1.7759-3.9841,3.9843,0,2.1912,1.7928,3.9838,3.9841,3.9838,2.2079,0,3.9841-1.7926,3.9841-3.9838,0-2.2083-1.7762-3.9843-3.9841-3.9843Z" style="fill:#262626;"/></svg>