<?xml version="1.0" encoding="UTF-8"?><svg id="a" xmlns="http://www.w3.org/2000/svg" viewBox="0 0 160 160"><path d="M142.8569,0H17.1429C7.6786,0,0,7.6785,0,17.1428v125.7141C0,152.3214,7.6786,160,17.1429,160h125.714c9.4645,0,17.1431-7.6786,17.1431-17.1431V17.1428c0-9.4643-7.6786-17.1428-17.1431-17.1428Zm-41.4856,39.8357c3.1157-3.1144,8.1661-3.1144,11.2804,0l7.5119,7.5121c3.1129,3.1144,3.1148,8.1628,0,11.2773l-7.6397,7.6415-18.7928-18.7927,7.6402-7.6382Zm-62.3282,14.1011l14.8931-14.8931c2.0569-2.0569,5.3904-2.0569,7.4473,0l5.5847,5.5864-10.2397,10.2397c-.5146,.5129-.5146,1.3464,0,1.861l1.861,1.861c.1221,.1224,.2672,.2194,.4269,.2856,.1596,.0662,.3308,.1003,.5037,.1003s.344-.0341,.5037-.1003,.3047-.1633,.4268-.2856l10.2397-10.2397,7.3245,7.3245-22.342,22.3387-16.6296-16.6312c-2.0569-2.0569-2.0552-5.3904,0-7.4473Zm2.5931,68.5085c-2.4072,.4233-4.5023-1.6714-4.0823-4.0774l3.1144-17.8364,49.306-49.2992,18.7923,18.7911-49.2924,49.2943-17.8381,3.1276Zm79.3212-16.3802l-14.8931,14.8912c-2.0572,2.0568-5.3905,2.0568-7.4473,0l-16.6364-16.6344,22.3419-22.3389,7.328,7.328-10.2394,10.2394c-.5131,.5131-.5131,1.3465,0,1.861l1.861,1.861c.5126,.5145,1.3459,.5145,1.861,0l10.2395-10.2394,5.5848,5.5844c2.0568,2.0573,2.0568,5.3906,0,7.4478Z" style="fill:#fff;"/></svg>