<?xml version="1.0" encoding="UTF-8"?><svg id="a" xmlns="http://www.w3.org/2000/svg" viewBox="0 0 160 160"><path d="M79.9823,66.1028c-7.7623,0-14.0568,6.2269-14.0568,13.9184,0,7.6862,6.2944,13.922,14.0568,13.922s14.0603-6.234,14.0621-13.922c0-7.6915-6.298-13.9184-14.0621-13.9184Z" style="fill:#fff;"/><path d="M142.8569,0H17.1428C7.6787,0,0,7.6785,0,17.1428v125.7141C0,152.3214,7.6787,160,17.1428,160h125.7141c9.4646,0,17.1431-7.6786,17.1431-17.1431V17.1428c0-9.4643-7.6785-17.1428-17.1431-17.1428Zm-22.1016,83.6773c0,2.4539-2.016,4.3812-4.468,4.3812h-4.3228c-.8032,3.1277-2.0568,6.0798-3.688,8.7642l3.1028,3.1383c.8369,.8404,1.3015,1.9556,1.3015,3.1436-.0035,1.1862-.4628,2.305-1.3015,3.1418l-5.1772,5.172c-.8386,.8369-1.9575,1.2997-3.1454,1.2997-1.1897,0-2.3068-.461-3.1471-1.3032l-3.2217-3.2128c-2.656,1.5479-5.5,2.7394-8.6331,3.5053v4.6188c0,2.4521-1.9592,4.4291-4.4113,4.4291h-7.3192c-2.4521,0-4.3811-1.977-4.3811-4.4291v-4.6171c-3.1313-.7677-5.9929-1.9592-8.6489-3.5071l-3.25,3.2198c-.8405,.8369-1.9575,1.2997-3.1437,1.2997s-2.3014-.461-3.1418-1.2997l-5.1774-5.1755c-.8386-.8387-1.3013-1.961-1.3013-3.149s.4609-2.3102,1.3013-3.1489l3.1064-3.1259c-1.6312-2.6826-2.8848-5.633-3.6862-8.7642h-4.3226c-2.454,0-4.4344-1.9273-4.4344-4.3812v-7.3138c0-2.4468,1.9805-4.4185,4.4344-4.4185h4.3226c.8014-3.1312,2.0568-6.0638,3.6897-8.7465l-3.1063-3.1205c-.8405-.8386-1.2997-1.9557-1.2997-3.1418,0-1.1702,.4734-2.3156,1.3031-3.1436l5.1738-5.172c1.6826-1.6773,4.6188-1.6791,6.2961,.0018l3.2358,3.2181c2.656-1.5479,5.5176-2.7411,8.6489-3.5053v-4.6223c0-2.4521,1.929-4.4681,4.3811-4.4681h7.3192c2.452,0,4.4113,2.0159,4.4113,4.4681v4.6241c3.1331,.766,5.9771,1.9575,8.6295,3.5035l3.2375-3.2181c1.672-1.6773,4.6063-1.6791,6.2855,.0018l5.1772,5.172c.8352,.8369,1.2997,1.9575,1.2997,3.1436,0,1.1879-.4611,2.3068-1.2997,3.1454l-3.1064,3.1135c1.6348,2.6827,2.8884,5.6153,3.6917,8.7465h4.3208c2.4521,0,4.4663,1.9716,4.4646,4.4185v7.3138Z" style="fill:#fff;"/></svg>