<?xml version="1.0" encoding="UTF-8"?><svg id="a" xmlns="http://www.w3.org/2000/svg" viewBox="0 0 160 160"><path d="M142.8569,0H17.1429C7.6786,0,0,7.6785,0,17.1428v125.7141C0,152.3214,7.6786,160,17.1429,160h125.7141c9.4645,0,17.1431-7.6786,17.1431-17.1431V17.1428c0-9.4643-7.6786-17.1428-17.1431-17.1428Zm-40.6789,28.3871c2.9019-5.0266,9.3293-6.7487,14.3557-3.8467,5.0265,2.902,6.7487,9.3293,3.8467,14.3558-2.902,5.0264-9.3293,6.7486-14.3558,3.8466-5.0264-2.902-6.7487-9.3293-3.8466-14.3557ZM30.984,90.5092c-5.8041,0-10.5092-4.7051-10.5092-10.5092s4.7051-10.5091,10.5092-10.5091,10.5091,4.7051,10.5091,10.5091-4.7051,10.5092-10.5091,10.5092Zm9.3232,.9297c3.3169-2.7065,5.4371-6.824,5.4371-11.4389s-2.1202-8.7321-5.437-11.4388c2.8551-11.026,9.7402-20.4431,18.9792-26.592l7.508,13.0043c-7.84,5.5681-12.9808,14.7-12.9808,25.0269s5.1409,19.4581,12.9808,25.0261l-7.5081,13.0044c-9.2392-6.1488-16.1243-15.566-18.9792-26.5919Zm76.2264,44.0206c-5.0264,2.902-11.4537,1.1798-14.3557-3.8466-2.9021-5.0264-1.1799-11.4537,3.8466-14.3557,5.0265-2.902,11.4537-1.1799,14.3558,3.8466,2.902,5.0264,1.1798,11.4537-3.8467,14.3557Zm-.0429-22.9089c-3.9947-1.5052-8.6064-1.2759-12.5918,1.025-3.9922,2.305-6.4973,6.1938-7.1862,10.4142-3.8858,1.0789-7.9734,1.6678-12.1982,1.6678-7.2994,0-14.1988-1.731-20.3244-4.7897l7.5092-13.0063c3.9062,1.8043,8.2375,2.8394,12.8152,2.8394,15.972,0,29.1213-12.2645,30.5573-27.8683h15.0052c-.7143,11.6052-5.7798,22.0484-13.5862,29.7178Zm-1.419-35.3827c-1.4359-15.6045-14.5853-27.8691-30.5573-27.8691-4.5777,0-8.9089,1.035-12.8152,2.8394l-7.5092-13.0061c6.1255-3.0588,13.0249-4.7899,20.3243-4.7899,4.2248,0,8.3124,.5889,12.1982,1.6678,.6888,4.2205,3.1939,8.1094,7.1862,10.4143,3.9854,2.301,8.5969,2.5302,12.5916,1.0251,7.8065,7.6696,12.8721,18.1132,13.5864,29.7184h-15.0052Z" style="fill:#fff;"/></svg>