<?xml version="1.0" encoding="utf-8"?>
<!-- Generator: Adobe Illustrator 28.4.1, SVG Export Plug-In . SVG Version: 6.00 Build 0)  -->
<svg version="1.1" id="Layer_1" xmlns:v="https://vecta.io/nano"
	 xmlns="http://www.w3.org/2000/svg" xmlns:xlink="http://www.w3.org/1999/xlink" x="0px" y="0px" viewBox="0 0 30 30"
	 style="enable-background:new 0 0 30 30;" xml:space="preserve">
<path d="M24.4,2.1H5.6c-1.9,0-3.5,1.6-3.5,3.5v18.7c0,2,1.6,3.6,3.5,3.6h18.7c2,0,3.5-1.6,3.5-3.5V5.6C27.9,3.7,26.3,2.1,24.4,2.1z
	 M16,12c-0.3,0-0.8,0.1-1.1,0.2c-0.3,0.1-0.7,0.2-1,0.3c-0.3,0.1-0.6,0.2-0.8,0.3v8.7c-0.2,0.1-0.4,0.1-0.8,0.2
	c-0.3,0.1-0.8,0.1-1.1,0.1s-0.7,0-1-0.1c-0.3-0.1-0.5-0.2-0.8-0.3C9.2,21,9,20.8,9,20.5c-0.1-0.3-0.2-0.6-0.2-1v-7.7
	c0-0.4,0.1-0.7,0.2-1c0.2-0.3,0.3-0.5,0.6-0.8c0.3-0.2,0.7-0.3,1-0.5C11,9.3,11.5,9.1,11.9,9c0.4-0.2,0.9-0.3,1.5-0.3
	c0.5-0.1,0.9-0.1,1.5-0.1c0.8,0,1.5,0.2,2,0.5s0.7,0.8,0.7,1.6c0,0.3,0,0.5-0.1,0.7c-0.1,0.3-0.2,0.4-0.3,0.6
	C16.8,11.9,16.5,11.9,16,12z M21.5,21c-0.4,0.5-1,0.7-1.8,0.7c-0.8,0-1.4-0.3-1.8-0.7c-0.4-0.5-0.7-1-0.7-1.8c0-0.8,0.3-1.3,0.7-1.8
	c0.4-0.5,1-0.7,1.8-0.7c0.8,0,1.4,0.3,1.8,0.7c0.4,0.5,0.7,1,0.7,1.8C22.2,20,22,20.6,21.5,21z"/>
</svg>
