<?xml version="1.0" encoding="UTF-8"?><svg id="a" xmlns="http://www.w3.org/2000/svg" viewBox="0 0 160 160"><path d="M142.8569,0H17.1428C7.6786,0,0,7.6786,0,17.1428v125.714c0,9.4645,7.6786,17.1431,17.1428,17.1431h125.714c9.4645,0,17.1431-7.6786,17.1431-17.1431V17.1428c0-9.4643-7.6786-17.1428-17.1431-17.1428Zm-55.7856,124.7855c0,15.5718-9.1428,22.6789-22.4642,22.6789-12.0357,0-19-6.2146-22.5714-13.7501l12.25-7.3933c2.3571,4.1791,4.5,7.7144,9.6785,7.7144,4.9286,0,8.0715-1.9281,8.0715-9.4645v-51.1067h15.0357v51.3213Zm35.5714,22.6789c-13.9647,0-23-6.643-27.3929-15.3572l12.2503-7.0713c3.2142,5.2496,7.4282,9.1426,14.8215,9.1426,6.2137,0,10.214-3.1068,10.214-7.4291,0-5.1423-4.0718-6.964-10.9643-9.9993l-3.7499-1.6071c-10.857-4.6075-18.0356-10.4286-18.0356-22.6789,0-11.2856,8.6069-19.8571,22.0001-19.8571,9.571,0,16.4277,3.3215,21.3562,12.0358l-11.7137,7.5003c-2.5712-4.6074-5.3569-6.4289-9.6783-6.4289-4.3929,0-7.1787,2.7857-7.1787,6.4289,0,4.4993,2.7858,6.321,9.2499,9.1426l3.7499,1.6071c12.786,5.4643,19.9638,11.0716,19.9638,23.643,0,13.4997-10.6423,20.9288-24.8923,20.9288Z" style="fill:#fff;"/></svg>