<?xml version="1.0" encoding="utf-8"?>
<!-- Generator: Adobe Illustrator 28.4.1, SVG Export Plug-In . SVG Version: 6.00 Build 0)  -->
<svg version="1.1" id="a" xmlns="http://www.w3.org/2000/svg" xmlns:xlink="http://www.w3.org/1999/xlink" x="0px" y="0px"
	 viewBox="0 0 160 160" style="enable-background:new 0 0 160 160;" xml:space="preserve">
<style type="text/css">
	.st0{fill:#262626;}
</style>
<polygon class="st0" points="70,95 96.1,80 70,65 "/>
<path class="st0" d="M142.9,0H17.1C7.7,0,0,7.7,0,17.1v125.7c0,9.5,7.7,17.1,17.1,17.1h125.7c9.5,0,17.1-7.7,17.1-17.1V17.1
	C160,7.7,152.3,0,142.9,0z M130.2,80.1c0,0,0,16.3-2.1,24.1c-1.1,4.3-4.5,7.7-8.8,8.9c-7.9,2-39.3,2-39.3,2s-31.3,0-39.3-2.1
	c-4.3-1.2-7.7-4.6-8.9-8.9c-2-7.8-2-24.1-2-24.1s0-16.3,2-24.2c1.2-4.3,4.7-7.8,8.9-8.9c7.9-2,39.3-2,39.3-2s31.5,0,39.3,2.2
	c4.3,1.1,7.7,4.5,8.8,8.8C130.3,63.7,130.2,80.1,130.2,80.1z"/>
</svg>
