<?xml version="1.0" encoding="utf-8"?>
<!-- Generator: Adobe Illustrator 26.1.0, SVG Export Plug-In . SVG Version: 6.00 Build 0)  -->
<svg version="1.1" id="a" xmlns="http://www.w3.org/2000/svg" xmlns:xlink="http://www.w3.org/1999/xlink" x="0px" y="0px"
	 viewBox="0 0 390 25" style="enable-background:new 0 0 390 25;" xml:space="preserve">
<style type="text/css">
	.st0{fill:#FFFFFF;}
</style>
<g>
	<g>
		<g>
			<g>
				<path class="st0" d="M273.8,20.3c0,0.1,0,0.2,0.1,0.1c0.1-0.7-0.6-0.2-0.7,0.1C273.7,20.7,273.6,20.3,273.8,20.3z"/>
				<path class="st0" d="M309.9,20.8c0.7,0.2,0.3,0,0.7,0.5c-0.1-0.5,0.7,0,0.9,0.1c0.2-0.4-0.2-0.4-0.2-0.7
					c-0.5-0.1-0.7,0.2-0.4-0.2c-0.4,0-0.4-0.2-0.7-0.3C310.1,20.6,310.3,20.6,309.9,20.8L309.9,20.8z"/>
			</g>
			<g>
				<path class="st0" d="M334.4,16.8c0,0,0.1,0.1,0.2,0.2C334.5,16.9,334.5,16.8,334.4,16.8z"/>
				<path class="st0" d="M251.5,19.1C251.3,19.3,251.6,19.3,251.5,19.1L251.5,19.1z"/>
				<path class="st0" d="M394.3,19.7c-0.1,0-0.1,0-0.2,0v0.1C394.2,19.9,394.2,19.9,394.3,19.7z"/>
				<path class="st0" d="M-2.5,17.9c-0.1,0-0.3,0-0.4,0l0,0C-2.8,17.9-2.7,17.9-2.5,17.9z"/>
				<path class="st0" d="M102.1,19.2c-0.1,0-0.1,0-0.2,0C101.9,19.2,102,19.2,102.1,19.2z"/>
				<path class="st0" d="M262.9,20.5c0.1,0,0.4-0.1,0.6-0.1c1.7,0.4,3.1,0.8,4.4,0.8c0.4-0.4,0.2-0.7,0.8-0.8
					c0.9,0.1,2.1,1.1,2.6,0.4c-0.4,0-0.5,0.2-0.6-0.2c0.6,0.2,0.3-0.4,0.9-0.2c0.3,0-0.1,0.2,0.1,0.3c2.3,0.4,3.1-0.5,4.5-0.1
					c-0.2,0-0.3-0.1-0.3-0.3c0.4-0.2,1.2,0.4,1.6,0c-0.8,0-0.1-0.2,0-0.4c-0.1,0.5,0.2,0,0.6,0.2c0.2,0.1-0.1,0.6,0.2,0.7
					c0.1-0.4,0.7-0.5,1.1-0.8c1.1,0.4,2.7,0.9,3.7,1c-1-0.1,0.3-0.3-0.4-0.6c0.6,0.2,1.4-0.3,1.7,0.5c0.2-0.7,1,0.1,1.5,0
					c-0.2-0.3,0.6,0.2,0.5-0.2c0.5,0.5,1.1,0,1.6,0c1.7,0.4,3.8,0.8,5,0.3c0.6-0.3,1,0.2,0.9,0.2c0.9-0.1,1.8-1.1,3.1-0.3
					c0.4-0.1,0.1-0.2,0.3-0.4c1-0.2,2.3,0.4,3.5,0.6c0.5,0.1,1.5-0.3,1.5,0.1c0.3-0.4,0.7-0.5,0.1-0.8c0.4-0.2,1.3,0.2,1.2-0.2
					c1.3,0.7,2.1,0.2,3.2,0.7c-0.2-0.9,1.4-0.2,2.3,0c-0.2-0.1-0.4-0.4-0.2-0.4c0.9,0.1,1.8,1.3,3.1,1c-0.4-0.2-0.4-0.1-0.9-0.1
					c0.7-0.3,0.1-0.7,0.5-0.9c0.3,0.8,1,0.2,1.5,0.3c-0.1,0-0.3,0-0.3-0.2c0.6,0.2,0.6-0.3,1.1-0.3c0.2,0.1,0.4,0.9,0.7,0.6
					c-0.4,0,0-0.4,0.2-0.4c0.4,0.3,0.9-0.2,1.3,0.1c0-0.2,0.1-0.4,0.3-0.5c0,0.2,0.6,0.6,0.7,0.3c-0.6-0.3,0.5-0.2,0.8-0.2
					c-0.4,0.3,0.3,0.2,0.2,0.5c0.5,0,1,0,1.3-0.1c-0.3,0-0.4-0.1-0.4-0.3c0.3,0,0.6,0.7,0.9,0.3c0-0.2-0.4-0.4-0.7-0.7
					c0.7-0.5,2.2,0.3,3-0.5c0.5,0.1,0.7,0.4,1.3,0.4c0.1-0.2,0.1,0.3,0.4,0.2c0.3,0.6,2.1-1.4,2.9-0.7c0.2-0.2,0.1,0.1,0.5,0.2
					c-0.2,0.2,0.7-0.3,1.1,0.2c0.4,0.1-0.3,0.3,0.2,0.3c0.2,0.4,0.8-0.5,1.1-0.5c-0.1,0-0.2,0.5-0.2,0.5c0.8-0.1,2.4-0.8,1.8-1.4
					c0.9-0.4,3-1,3.3-0.1c0.5-0.2-0.3-0.5,0.1-0.5c0.5,0,0.3,0.3,0.7,0.6c0.1-0.5,0.8-0.3,1.4-0.3c0.2-0.4-0.5-0.1-0.2-0.5
					c0.2,0.2,0.7,0.5,1,0.2c0.1-0.3-0.2-0.3-0.2-0.4c1-0.2,2.2,0.1,2.7,0.4c-0.3-0.4,0.4-0.7,0.7-0.2c0.2-0.9,1.3,0.3,1.6-0.1
					c-0.5-0.5,1.2,0,1.5-0.1c0.1-0.2-0.1-0.7,0.2-0.6c0.8,0.2,0.8,0.5,2,0.3c-0.2,0-0.4,0-0.4-0.2c1.1,0,0.2,0.4,1.3,0.2
					c0.2,0.3-0.3,0.5,0.2,0.5c0.3,0,0-0.2,0-0.4c0.7,0.4,1.6-0.1,2,0.4c0.6-0.5,1.5,0.2,2.2,0.1c0.1-0.7,2.1,0.3,2.8,0.1
					c0.1-0.3-0.2-0.3,0.1-0.5c0.6,0.5,0.8,0.1,1.3,0.2c-0.1-0.5,0.1-0.4-0.2-0.7c0.5,0.3,0.9,0,1.3-0.1c-0.4,0.5,0.7-0.1,0.8,0.5
					c0.1-0.2-0.4-0.6,0.2-0.5c0.4,0-0.4,0.6,0.1,0.7c0.2-0.1,0.1-0.5,0.4-0.5c0.1,0.7,0.6-0.1,0.9-0.1s0.1,0.4,0.4,0.4
					c-0.1-0.6,0.5-0.3,0.6-0.1c0.2-0.3-0.5-0.6-0.1-0.7c0.7,0.3,1.5,0.8,2.3,0.4c0.4,0.1,0.4-0.4,0.7-0.2l0,0
					c-0.1,0.1-0.2,0.4,0,0.4c0.6,0,0.8-0.2,0.8,0.3c0.2-0.9,1.1,0.2,1.7-0.2c-0.1-0.1-0.3-0.4,0-0.3c0.3-0.4,0.6,0.8,1.1,0.4
					c-0.1,0.7,0.4-1,0.5-0.3c0.6-0.6,1.3-0.3,1.9,0.3c0-0.2,0-0.5,0.2-0.5c0.5,0.4,0,0.5,0.8,1c0.2-0.4-0.4-0.7-0.1-0.8
					c0.6,0,1.4,1,1.4,0.6c-0.2-0.1-0.7-0.5-0.4-0.6c0.9,0,0.7,0.6,1.4,0.4c-0.2-0.1,0.4-0.2,0.3-0.4c0.5,0.3,2.1-0.2,3,0.6
					c0.3-0.3,0.6-0.1,1.1-0.4c0.1,0.2-0.2,0.7,0.1,0.7c0-0.2,0.1-0.3,0.3-0.4c0.9,0.5,1.8,1.2,3.2,0.8c-0.3-0.1-0.6-0.1-0.7-0.3
					c0.5,0.2,0.5-0.3,0.9-0.2c-0.2,0.3,1.8,0.7,1.7,0.3c0.4,0.7,2.1-0.1,2.1-0.1s0.2,0.3,0.4,0.3c0.7,0,1.8-0.2,2.6-0.2
					c-1-0.4-2.4-0.8-3.1-0.7c0,0.2,0.2,0.3,0.3,0.2c0,0.6-1.5-0.7-2-0.4c-0.1-0.8-2.4-0.2-3.5-0.2c-0.2,0-0.4-0.3-0.4-0.3
					s-1.6,0.8-2.1,0.1c0.1,0.4-2,0-1.7-0.3c-0.5-0.1-0.4,0.4-0.9,0.2c0.1,0.2,0.5,0.2,0.7,0.3c-1.4,0.4-2.3-0.3-3.2-0.8
					c-0.2,0-0.3,0.1-0.3,0.4c-0.3,0,0-0.5-0.1-0.7c-0.4,0.3-0.8,0.1-1.1,0.4c-1-0.8-2.6-0.3-3-0.6c0.1,0.2-0.5,0.2-0.3,0.4
					c-0.7,0.3-0.6-0.4-1.4-0.4c-0.3,0.1,0.2,0.5,0.4,0.6c0,0.3-0.8-0.6-1.4-0.6c-0.4,0.1,0.3,0.4,0.1,0.8c-0.8-0.5-0.3-0.5-0.8-1
					c-0.2,0-0.2,0.3-0.2,0.5c-0.6-0.6-1.3-0.9-1.9-0.3c-0.1-0.8-0.7,1-0.5,0.3c-0.5,0.4-0.8-0.8-1.1-0.4c-0.3-0.1-0.1,0.2,0,0.3
					c-0.6,0.4-1.5-0.7-1.7,0.2c0.1-0.5-0.2-0.3-0.8-0.3c-0.3,0-0.1-0.3,0-0.4l0,0c-0.3-0.1-0.3,0.3-0.7,0.2
					c-0.7,0.4-1.5-0.1-2.3-0.4c-0.4,0.1,0.2,0.4,0.1,0.7c-0.1-0.2-0.7-0.5-0.6,0.1c-0.3,0-0.1-0.4-0.4-0.4s-0.8,0.8-0.9,0.1
					c-0.3,0-0.1,0.4-0.4,0.5c-0.5-0.1,0.3-0.7-0.1-0.7c-0.6-0.1-0.1,0.3-0.2,0.5c-0.1-0.5-1.2,0.1-0.8-0.5c-0.5,0.1-0.8,0.5-1.3,0.1
					c0.3,0.3,0.1,0.2,0.2,0.7c-0.5-0.2-0.7,0.2-1.3-0.2c-0.3,0.2,0,0.2-0.1,0.5c-0.7,0.2-2.7-0.8-2.8-0.1c-0.7,0.1-1.6-0.5-2.2-0.1
					c-0.5-0.6-1.3,0-2-0.4c-0.1,0.2,0.2,0.4,0,0.4c-0.5-0.1,0-0.2-0.2-0.5c-1.1,0.1-0.2-0.2-1.3-0.2c0,0.2,0.3,0.1,0.4,0.2
					c-1.2,0.2-1.3-0.1-2-0.3c-0.3,0-0.1,0.5-0.2,0.6c-0.3,0.2-2-0.4-1.5,0.1c-0.4,0.4-1.5-0.8-1.6,0.1c-0.3-0.5-1-0.2-0.7,0.2
					c0.1,0.1,0.2,0.1,0.2,0.2c-0.1-0.1-0.1-0.1-0.2-0.2c-0.5-0.3-1.7-0.6-2.7-0.4c0.1,0.1,0.3,0.2,0.2,0.4c-0.3,0.3-0.8,0-1-0.2
					c-0.2,0.4,0.5,0.1,0.2,0.5c-0.6,0-1.3-0.2-1.4,0.3c-0.4-0.3-0.2-0.6-0.7-0.6c-0.4,0,0.5,0.3-0.1,0.5c-0.3-0.9-2.3-0.3-3.3,0.1
					c0.6,0.7-1,1.4-1.8,1.4c0-0.1,0.1-0.6,0.2-0.5c-0.4-0.1-0.9,0.8-1.1,0.5c-0.5,0,0.2-0.2-0.2-0.3c-0.3-0.4-1.3,0-1.1-0.2
					c-0.4-0.1-0.4-0.4-0.5-0.2c-0.9-0.7-2.7,1.3-2.9,0.7c-0.2,0.1-0.3-0.4-0.4-0.2c-0.6,0-0.8-0.3-1.3-0.4c-0.8,0.8-2.3,0-3,0.5
					c0.3,0.3,0.7,0.5,0.7,0.7c-0.3,0.3-0.5-0.3-0.9-0.3c0,0.2,0.2,0.3,0.4,0.3c-0.3,0.2-0.9,0.1-1.3,0.1c0-0.3-0.7-0.2-0.2-0.5
					c-0.3,0-1.4-0.1-0.8,0.2c-0.1,0.3-0.7-0.1-0.7-0.3c-0.2,0.1-0.3,0.3-0.3,0.5c-0.5-0.3-0.9,0.2-1.3-0.1c-0.2-0.1-0.5,0.3-0.2,0.4
					c-0.2,0.3-0.5-0.4-0.7-0.6c-0.5,0-0.5,0.5-1.1,0.3c0,0.1,0.2,0.1,0.3,0.2c-0.5-0.1-1.1,0.5-1.5-0.3c-0.5,0.2,0.1,0.5-0.5,0.9
					c0.5,0,0.5-0.1,0.9,0.1c-1.4,0.3-2.2-0.9-3.1-1c-0.2,0-0.1,0.3,0.2,0.4c-0.8-0.2-2.4-0.9-2.3,0c-1.1-0.5-1.9,0.1-3.2-0.7
					c0.1,0.4-0.8,0-1.2,0.2c0.6,0.3,0.2,0.3-0.1,0.8c0-0.5-1-0.1-1.5-0.1c-1.2-0.1-2.5-0.7-3.5-0.6c-0.2,0.1,0,0.2-0.3,0.4
					c-1.3-0.8-2.2,0.2-3.1,0.3c0.1,0-0.2-0.5-0.9-0.2c-1.2,0.5-3.3,0.1-5-0.3c-0.5,0-1.2,0.5-1.6,0c0.1,0.4-0.7,0-0.5,0.2
					c-0.4,0.1-1.3-0.6-1.5,0c-0.3-0.8-1.1-0.3-1.7-0.5c0.6,0.2-0.6,0.5,0.4,0.6c-1-0.1-2.7-0.6-3.7-1c-0.5,0.3-1.1,0.4-1.1,0.8
					c-0.3-0.1,0-0.6-0.2-0.7c-0.4-0.2-0.7,0.3-0.6-0.2c-0.2,0.2-0.8,0.4,0,0.4c-0.5,0.3-1.3-0.2-1.6,0c-0.1,0.2,0.1,0.3,0.3,0.3
					c-1.3-0.3-2.2,0.6-4.5,0.1c-0.2,0,0.2-0.2-0.1-0.3c-0.6-0.2-0.3,0.4-0.9,0.2c0.1,0.4,0.2,0.2,0.6,0.2c-0.5,0.8-1.8-0.3-2.6-0.4
					c-0.7,0.2-0.5,0.4-0.8,0.8c-0.4,0-0.9,0-1.3-0.1c0.7,0.3,1.4,0.5,1.8,0.8C262,20,262.5,20.4,262.9,20.5z"/>
				<path class="st0" d="M193.6,18.3c0.1-0.1,0.1-0.1,0.3-0.2c-0.2,0-0.4-0.1-0.6-0.2C193.4,18.1,193.5,18.2,193.6,18.3z"/>
				<path class="st0" d="M340.2,18.1c0,0,0.1,0.1,0.2,0.2C340.3,18.2,340.2,18.2,340.2,18.1z"/>
				<path class="st0" d="M107.8,20.5c-0.1,0-0.1,0-0.2,0C107.7,20.5,107.8,20.5,107.8,20.5z"/>
				<path class="st0" d="M390.5,19.1c-0.1,0.2-0.2,0-0.3-0.2c0.8-0.1,2.7,0.4,3.6,1c0.1-0.2-0.2-0.3-0.2-0.4
					c0.3-0.1,0.4,0.2,0.5,0.3v-0.1c-0.2-0.1-0.2-0.2-0.2-0.4c0.1,0,0.1,0.1,0.2,0.1v-0.5c-1.1-0.2-1.7-0.9-3-1.2
					c0,0.2-0.1,0.4,0.1,0.4c-0.2,0.3-0.3-0.3-0.4-0.4c-0.1,0.1-0.5,0-0.5,0.3c-0.2-0.2-0.2-0.4-0.7-0.3c0.2,0.6-0.3-0.1-0.5,0.6
					c-0.2-0.4-0.7-0.2-1-0.3c-0.1,0.3,0.1,0.4,0.4,0.4c-0.1,0.1-0.1,0.1-0.2,0.1c0.1,0.1,0.1,0.1,0.1,0.2
					C389,18.5,390.5,19.8,390.5,19.1z"/>
				<path class="st0" d="M257.3,20.4C257,20.6,257.3,20.6,257.3,20.4L257.3,20.4z"/>
				<path class="st0" d="M29.2,21.6c0.2-0.1,0.4-0.1,0.6-0.1c-0.3,0-0.5-0.1-0.7-0.2C29,21.5,29,21.6,29.2,21.6z"/>
				<path class="st0" d="M197,18.3c1.2,0.2,1.8,1,2.7,1.1c-0.1,0-0.3,0.1-0.3,0.2c1.1,0,2-0.5,3.4-0.4c-0.2-1.3,2.9-0.4,4.2-0.3
					c0.1-0.2-0.2-0.3,0-0.4c0.3,0.1,0.3,0.4,0.5,0.4c-0.2-0.4,0.1-0.4,0.4-0.6c0.1,0.2,1.2,0.7,1,0.3c-0.3,0-0.5-0.1-0.6-0.3
					c1.5-0.1,1.7,0.8,3,0.5c-0.1,0-0.3,0-0.3-0.2c1.2-0.6,2.1-0.9,3.2-0.5c0.5,0.2,2.2,0.3,2.9,0.8c-0.2-0.6,0.8-0.3,0.9-0.2
					c0.3-0.5-0.7-0.1-0.4-0.6c0.2,0.2,0.8,0.3,1,0.1c-0.4,0.3,1,0.8,1.1,0.7c-0.2-0.1-0.3-0.2-0.4-0.3c0.5,0.2,0.5-0.2,0.8-0.3
					c0.7,0.3,1.4,1.1,2.1,1c-0.4-0.2,0.2-0.6,0.5-0.5c1.1,0.7,2-0.3,3.2,0.4c-0.3-0.6,0.2-0.2,0.5-0.5c-0.2,0-0.2-0.2-0.3-0.3
					c-0.1,0.1-0.9,0-1-0.2c0.2,0,0.3,0,0.5,0c-0.2-0.1-0.4-0.2-0.5-0.1c-0.2-0.1,0-0.1,0-0.3c-2,0.2-4.2-1.3-5.8-1
					c0.1,0.2,0.9,0.3,1,0.2c0.1,0.1,0.1,0.2,0.3,0.3c-0.3,0.3-0.8-0.1-0.5,0.5c-1.2-0.7-2.1,0.3-3.2-0.4c-0.3-0.1-0.8,0.3-0.5,0.5
					c-0.7,0.1-1.4-0.7-2.1-1c-0.3,0.1-0.2,0.5-0.8,0.3c0.1,0.1,0.2,0.2,0.4,0.3c-0.1,0.1-1.5-0.5-1.1-0.7c-0.2,0.2-0.9,0.1-1-0.1
					c-0.3,0.5,0.7,0.1,0.4,0.6c-0.1-0.2-1.1-0.4-0.9,0.2c-0.6-0.5-2.4-0.6-2.9-0.8c-1-0.4-1.9-0.1-3.2,0.5c0,0.1,0.2,0.1,0.3,0.2
					c-1.4,0.3-1.5-0.6-3-0.5c0.1,0.2,0.3,0.3,0.6,0.3c0.2,0.3-0.9-0.1-1-0.3c-0.3,0.2-0.5,0.2-0.4,0.6c-0.3-0.1-0.2-0.4-0.5-0.4
					c-0.2,0,0,0.2,0,0.4c-1.2-0.1-4.3-1-4.2,0.3c-1.4-0.2-2.3,0.3-3.3,0.4C194.5,18.8,196,18.2,197,18.3z"/>
				<path class="st0" d="M8.2,20.9c-0.1,0.5,0.5-0.1,0.1,0.4C9,21,9.3,21.7,9,21c0.7-0.1,0.5,0.5,1,0.6c0-0.3-0.2-0.4,0.2-0.5
					c0,0.2-0.1,0.4,0.1,0.4c0-0.2,0-0.5,0.2-0.5c0.3,0.2,0.5,0.4,0.7,0.6c0-0.1,0-0.4,0.2-0.4c0,0.2-0.1,0.4,0.1,0.4
					c0.1-0.6,0.4,0.2,0.7,0.2c0.1-0.2-0.2-0.4,0-0.4c0.3-0.1,0.5,0.7,0.7,0.5c-0.4-0.3,1.3-0.5,1.3,0.2c0.1-0.5,0.5-0.4,0.1-0.9
					c0.2,0.3,0.4-0.1,0.7,0.2c0.3-0.4-0.5-0.1-0.4-0.4c0.2,0,0.3-0.2,0.5-0.2c0.2,0.3,0.1,0.6,0.2,0.7c0.5-0.2-0.4-0.6,0.1-0.8
					c0.4,0.1,0,0.7,0.5,0.7c-0.2-0.7,0.6-0.3,0.7-0.1c0.1-0.2,0.3-0.3,0.5-0.3c0,0.2-0.1,0.5,0.1,0.5c0.1-0.2,0.3-0.3,0.6-0.2
					c0,0.2-0.1,0.4,0.1,0.4c0.1-0.1,0.7,0,0.9-0.3c0.2,0.2,0.7,1.3,0.6,1c-0.3-0.4-0.2-0.9,0-1.4c0.7,0.4,1.1-0.1,1.8,0
					c0.5,0.8,1.8,1.3,2.8,1.3c0.2-0.4,0.6-0.7,0.8-1c0.1,0.4,0.5,1.1,0.8,1c-0.6-0.5,0.8-1-0.3-1.1c0.1-0.1,0.2-0.3,0.3-0.4
					c0.4,0.4,0.5,0.5,0.8,0.7c0.6-0.6,1.9,0,2.4-0.1c-0.5-0.2-0.9-0.4-1.1-0.8c-0.2,0-0.2,0.3-0.2,0.5c-0.3-0.3-0.7-0.6-1.2-0.8
					c0.8,0.5-1.1,0.1-1.2-0.2c-0.2,0-0.2,0.3-0.2,0.5c-0.3-0.1-0.7-0.6-1.6-0.3c-0.2,0-0.1-0.2-0.1-0.4c-0.3,0.4-1.9-0.5-2.5,0.2
					c-0.3-0.2-0.4-0.4-0.8-0.7c-0.1,0.1-0.2,0.2-0.3,0.4c1.1,0.1-0.3,0.6,0.3,1.1c-0.3,0.2-0.7-0.6-0.8-1c-0.3,0.3-0.7,0.5-0.8,1
					c-1,0-2.3-0.5-2.8-1.3c-0.7-0.1-1,0.4-1.8,0c-0.2,0.5-0.3,1,0,1.4c0.1,0.3-0.4-0.7-0.6-1c-0.2,0.4-0.8,0.2-0.9,0.3
					C12,20.2,12,20,12,19.8c-0.3-0.1-0.6,0-0.6,0.2c-0.2-0.1-0.1-0.3-0.1-0.5c-0.2,0.1-0.4,0.2-0.5,0.3c-0.2-0.3-0.9-0.7-0.7,0.1
					c-0.5,0-0.1-0.6-0.5-0.7c-0.5,0.2,0.5,0.5-0.1,0.8c-0.1-0.1,0-0.4-0.2-0.7c-0.2,0-0.3,0.2-0.5,0.2c-0.1,0.3,0.7,0,0.4,0.4
					c-0.3-0.3-0.5,0.1-0.7-0.2c0.4,0.5,0,0.4-0.1,0.9c0-0.7-1.7-0.6-1.3-0.2c-0.2,0.2-0.4-0.6-0.7-0.5c-0.2,0,0,0.2,0,0.4
					c-0.3,0-0.6-0.8-0.7-0.2c-0.2,0-0.1-0.2-0.1-0.4c-0.2,0-0.1,0.2-0.2,0.4C5.2,20,5,19.8,4.7,19.6c-0.2,0-0.2,0.2-0.2,0.4
					c0.7,0.3,1.4,0.6,2.1,0.9C7.4,20.9,7.9,21.3,8.2,20.9z"/>
				<path class="st0" d="M192.6,17.8c0.2,0,0.3,0,0.5,0c-0.2-0.1-0.4-0.2-0.6-0.3C192.2,17.7,192.5,17.6,192.6,17.8z"/>
				<path class="st0" d="M231,19.8c0-0.2,0.5,0.1,0.7,0.2c2-1,6.5-0.3,8.4,0.1c0.3-0.1,0.3-0.6,1.1-0.2c0.3-0.3,0.4-0.3,0.5-0.5
					c1.3,0.1,2.4,0.3,3.4-0.1c0.6,0.1,0.9,0.7,1.4,0.6c-0.1-0.1-0.6-0.5-0.2-0.5c0.6,0.2,1-0.1,1.3,0.5c0-0.2,0-0.4,0.2-0.4
					c1,0.9,2.7-0.6,3.6,0.6c0.4,0-0.2-0.2-0.1-0.4c1.9,0.8,3.1,0.6,4.9,1.1c-0.5-0.3,0.7-0.6,0.9-0.4c0.1,0.1,0.1,0.1,0.1,0.1
					s0.1-0.1,0.2-0.1c0,0,0.3,0.1,0.4,0c0,0,0.9-0.9,0.4-0.7c0.4,0,0.6-0.1,0.9-0.2c-0.5-0.1-0.9-0.2-1.4-0.3
					c-0.2,0-0.5,0.1-0.6,0.1c-0.4-0.1-0.9-0.5-0.3,0c-0.7-0.3-1.9-0.7-2.8-1.3c-0.6,0.1-0.9,0.4-1.5,0.4c0.5-0.2-0.4,0.8-0.4,0.7
					c-0.1,0.1-0.4,0-0.4,0c-0.1,0-0.1,0.1-0.2,0.1c0.1,0.2-0.2,0.2,0,0l-0.1-0.1c-0.2-0.2-1.5,0.2-0.9,0.4c-1.9-0.5-3-0.2-4.9-1.1
					c-0.1,0.2,0.5,0.4,0.1,0.4c-1-1.1-2.6,0.4-3.6-0.6c-0.2,0-0.1,0.2-0.2,0.4c-0.2-0.6-0.6-0.3-1.3-0.5c-0.3,0,0.2,0.4,0.2,0.5
					c-0.5,0-0.8-0.5-1.4-0.6c-1.1,0.4-2.1,0.2-3.4,0.1c-0.1,0.2-0.2,0.2-0.5,0.5c-0.7-0.4-0.7,0.1-1.1,0.2c-1.9-0.3-6.2-1-8.2-0.1
					c1.5,0.2,3.2,1.1,4.9,1C231,19.7,230.8,19.7,231,19.8z"/>
				<path class="st0" d="M42.7,22.5c-0.3,0.4,0.1,0,0.3,0.4c0.2-0.4,0.2,0,0.3-0.4c0.7,0.1,0.3,0.5,0.5,0.7c0.1-0.4,0.6-0.3,0.8-0.6
					c0.1,0.5,0.8,1.1,1.1,1.1c-0.1,0-0.6-0.4-0.3-0.4c0.5-0.1,0.3,0.4,0.5,0.4c0.1-0.2-0.2-0.4,0-0.4c0,0.2,0.2,0,0.3-0.1
					c0,0.2-0.1,0.5,0.1,0.5c0.2-0.4,1.3,0.5,1,0.1c-0.1-0.2-0.6-0.1-0.6-0.3c0.7,0.3,0.4-0.4,0.9-0.3c0,0.2-0.3,0.3,0,0.4
					c0.2-0.4,0.3-0.1,0.4,0c0.5-1.1,1-0.4,1.8-1.2c0.1,0.3-0.7,0.6-0.1,0.6c0.1-0.3,0.3-0.6,0.5-0.7c0.9,0.2,1.2,0.2,1.9-0.1
					c0,0.2,0.2,0.1,0.3,0.3c-0.1,0.2-0.2-0.1-0.3,0.1c0.2,0.2,0.8,0.1,0.9-0.2c-0.1-0.1-0.5-0.1-0.4-0.4c1.2,0.3,2-1.1,3.9-0.5
					c0,0.2-0.2,1.1,0.1,0.7c0.1-0.3,0.1-0.6-0.1-0.8c0.7,0.1,0.9-0.2,0.9-0.3c0.2,0.1,0.3,0.2,0.4,0.3c-0.2,0-0.4,0.2-0.2,0.2
					c0-0.2,0.4-0.4,0.3,0c0.8-0.9,2.9,0.4,2.4-0.3c1.1,0.4,2.3,0,3.4,0.4c2.8-1.4,6.2,1.7,8.2,0.4c-0.2,0-0.4-0.1-0.1-0.1
					c1.3,0.4,1.7-0.5,2.5-0.2c-0.3-0.1,0.2-0.2-0.1-0.4c0.4,0.3,0.7-0.2,0.9-0.4c-0.1,0.3,0.2,0.4,0.4,0.6c1.7-0.6,3.4-0.2,5-0.1
					c-0.4,0-0.5-0.3-0.7-0.4c0.9,0,2.1-0.2,2.5,0.6c0.2-0.1,0.1-0.5,0.4-0.5c-0.1,0.3,0,0.5,0.1,0.7c-1.5-0.2,0,0.4,0.4,0
					c-0.3,0-0.5-0.1-0.4-0.4c1-0.1,1.7,0.4,2.4-0.3c1.4,0.7,2.7,0.3,4.2,1c0-0.1,0-0.4,0.2-0.4c0.2,0.5,1.2-0.2,1.4,0.6
					c0.5-0.9,1.2-0.6,1.5-1.3c0.3,0.1,1.4-0.1,2.1-0.6c1.2,0.4,2.7,0.8,3.8,0.3c1.3,0.7,2.7,0.4,3.8,0.8c0.1-0.8,1.1,0.1,1.2-0.4
					c-0.2,0-0.2-0.2-0.3-0.3c0.3,0.1,0.4,0.4,0.7,0.2c0.1-0.4-0.3-0.4-0.2-0.8c1.2,0,2.5-0.4,3.8-0.1c-0.2-0.1-0.2-0.4,0-0.4
					c1.4,0.6,1.9,0,3.8,0.3c0-0.1,0-0.4,0.2-0.4c1.4,0.1,2.7,0.6,3.6-0.3c0,0.1,0,0.3,0,0.4c0.4-0.4,0.6-0.2,0.9-0.2
					c0.3-0.7,1.9,0.2,3.2,0.3c0.2-0.3-0.3-0.5,0.1-0.5c0.5,0.2,0.6,0.2,1,0.3c0.3-0.4,0.8-0.4,1.1-0.8c0.4-0.1,0.3,0.3,0.6,0.3
					c-0.1-0.5,1.2-0.2,1.3,0.2c0-0.2,0-0.4-0.1-0.5c1.5,0.2,2.5,0.2,4.1,0.7c-0.2,0-0.4,0-0.3,0.2c0.7-0.3,3,0,2.9,0.2
					c0.7-0.3,2.4,0.3,2.5-0.3c1.7,0.5,4.9,0.6,5.7-0.3c0.8,0.7,2.6,0.2,3.1,1.2c1.4-0.7,3.3-0.9,4.7-1.2c0,0.2-0.1,0.3-0.2,0.4
					c1.1-1.1,3.5-1.3,5.2-0.5c-0.1-0.4-0.4-0.5,0.1-0.8c3.1,0.7,4.8-0.3,7.3-0.6c1.2,0.7,4.6-0.1,5.5,0.7c0.6-0.9,2.7-0.7,3.8-0.7
					c-0.1,0-0.2-0.2,0-0.3c1.2,0.5,2.3-0.2,3.1-0.1c1.9,0.6,4.3,0.7,6.1-0.1c0.7,0.8,2.4,0.1,2.7-0.3c1,0.3,1.1,0,1.7,0.5
					c0.1-0.5,0.9-0.6,0.8-0.8c0.8,0.6,1-0.2,1.1,0.4c0.3-0.2-0.2-0.4,0.3-0.5c0.3,0.3,1,0.9,1.2,0.9c-1.3-0.6,1-0.9,1.1-0.3
					c0.2-0.8,1.4,0,1.6,0.3c0.4-0.8,2.4,0.2,2.9-0.7c0.6,0.3,1.5,0,2,0c-0.4-0.2-0.7-0.4-1.2-0.5c-1.2-0.2-3.2,0.9-3.8-0.6
					c-0.1,0.1-0.3,0.1-0.6,0.1c-0.1-0.3-0.4-0.1-0.1-0.4c-0.5-0.1-1.4,0.3-2.1,0c-0.5,0.9-2.5-0.1-2.9,0.7c-0.2-0.3-1.4-1.1-1.6-0.3
					c-0.1-0.6-2.4-0.3-1.1,0.3c-0.2,0.1-0.9-0.6-1.2-0.9c-0.5,0.1,0,0.3-0.3,0.5c-0.2-0.6-0.4,0.2-1.1-0.4c0,0.3-0.7,0.3-0.8,0.8
					c-0.7-0.6-0.8-0.2-1.7-0.5c-0.2,0.4-2,1.1-2.7,0.3c-1.8,0.9-4.2,0.7-6.1,0.1c-0.9-0.1-1.9,0.7-3.1,0.1c-0.2,0-0.2,0.2,0,0.3
					c-1.1,0-3.2-0.2-3.8,0.7c-0.9-0.8-4.4,0-5.5-0.7c-2.5,0.3-4.3,1.2-7.3,0.6c-0.4,0.3-0.2,0.4-0.1,0.8c-1.7-0.8-4.1-0.6-5.2,0.5
					c0.1-0.1,0.2-0.2,0.2-0.4c-1.4,0.2-3.3,0.5-4.7,1.2c-0.5-1-2.3-0.5-3.1-1.2c-0.8,0.9-4,0.8-5.7,0.3c-0.1,0.6-1.8,0-2.5,0.3
					c0.1-0.2-2.3-0.6-2.9-0.2c0-0.2,0.1-0.2,0.3-0.2c-1.6-0.6-2.5-0.6-4.1-0.7c0.1,0.1,0.1,0.3,0.1,0.5c-0.1-0.5-1.4-0.8-1.3-0.2
					c-0.3,0-0.1-0.4-0.6-0.3c-0.3,0.4-0.9,0.4-1.1,0.8c-0.4-0.1-0.5-0.1-1-0.3c-0.4,0,0.2,0.2-0.1,0.5c-1.4-0.1-2.9-0.9-3.2-0.3
					c-0.3,0-0.5-0.2-0.9,0.2c0-0.1,0-0.3,0-0.4c-0.9,1-2.2,0.4-3.6,0.3c-0.2,0-0.1,0.2-0.2,0.4c-1.9-0.3-2.4,0.2-3.8-0.3
					c-0.2,0-0.1,0.2,0,0.4c0.1,0,0.1,0,0.2,0c-0.1,0-0.2,0-0.2,0c-1.3-0.3-2.5,0.1-3.8,0.1c-0.1,0.4,0.3,0.4,0.2,0.8
					c-0.3,0.2-0.4-0.1-0.7-0.2c0.1,0.1,0.1,0.2,0.3,0.3c-0.1,0.5-1.1-0.3-1.2,0.4c-1.1-0.4-2.4-0.2-3.8-0.8
					c-1.1,0.5-2.7,0.1-3.8-0.3c-0.7,0.5-1.8,0.7-2.1,0.6c-0.3,0.7-1,0.4-1.5,1.3c-0.2-0.9-1.2-0.1-1.4-0.6c-0.2,0-0.1,0.2-0.2,0.4
					c-1.5-0.7-2.8-0.3-4.2-1C78.6,20.5,78,20,77,20.1c-0.1,0.3,0.1,0.4,0.4,0.4c-0.4,0.4-1.9-0.3-0.4,0c-0.1-0.2-0.2-0.4-0.1-0.7
					c-0.3,0-0.1,0.4-0.4,0.5c-0.4-0.8-1.6-0.6-2.5-0.6c0.2,0.2,0.3,0.4,0.7,0.4c-1.6-0.1-3.3-0.5-5,0.1c-0.2-0.1-0.4-0.2-0.4-0.6
					c-0.2,0.3-0.6,0.8-0.9,0.4c0.3,0.2-0.2,0.3,0.1,0.4c-0.9-0.3-1.2,0.6-2.5,0.2c-0.2,0,0,0.1,0.1,0.1c-2,1.2-5.5-1.8-8.2-0.4
					c-1.1-0.4-2.3,0-3.4-0.4c0.5,0.7-1.6-0.5-2.4,0.3c0.2-0.4-0.3-0.2-0.3,0c-0.2-0.1,0-0.2,0.2-0.2c0.1,0.1,0,0-0.2,0
					c-0.1,0.2-0.2,0.5-0.9,0.3c0.2,0.2,0.1,0.5,0.1,0.8c-0.2,0.4-0.1-0.5-0.1-0.7c-1.9-0.7-2.7,0.7-3.9,0.5
					c-0.1,0.3,0.3,0.3,0.4,0.4c-0.1,0.3-0.7,0.4-0.9,0.2c0.1-0.2,0.2,0.1,0.3-0.1c0-0.1-0.3-0.1-0.3-0.3c-0.8,0.3-1,0.3-1.9,0.1
					c-0.3,0.2-0.4,0.4-0.5,0.7c-0.7,0,0.2-0.3,0.1-0.6c-0.7,0.8-1.2,0.1-1.8,1.2c-0.2-0.2-0.2-0.4-0.4,0c-0.2-0.1,0.1-0.2,0-0.4
					c-0.2,0-0.3,0.1-0.4,0.3c0.2,0.2,0.4,0.4,0.6,0.5C42.2,22.5,42.4,22.5,42.7,22.5z"/>
				<path class="st0" d="M30.8,21.7c-0.3,0-0.5-0.1-0.7-0.1c0.3,0.1,0.5,0.3,0.7,0.3C30.8,21.8,30.8,21.8,30.8,21.7z"/>
				<path class="st0" d="M40.5,22.4c0-0.1,0-0.3,0-0.4c-0.1,0.1-0.3,0.3-0.3,0.1c-0.2,0-0.1,0.1,0,0.3
					C40.3,22.4,40.4,22.4,40.5,22.4z"/>
				<path class="st0" d="M33.6,21.9c0.6,1.2,3.2,0.9,4.9,1.6c0.3-0.8,1.2-0.3,1.9-0.9c0-0.3-0.4,0.2-0.3-0.2
					C40,22.2,40,22,39.7,22.1c-0.4,0,0.1,0.4,0.3,0.4c-0.2,0-1-0.6-1.1-1.1c-0.2,0.3-0.7,0.2-0.8,0.6c-0.2-0.2,0.2-0.6-0.5-0.7
					c-0.1,0.4-0.1-0.1-0.3,0.4c-0.1-0.4-0.6,0-0.3-0.4c-0.3-0.1-0.5,0-0.5,0.2c-0.3-0.2-0.5-0.4-0.7-0.6C35.2,21,35,21.3,34.3,21
					c-0.2,0.6,0.3-0.1,0.3,0.3c-0.6,0.5-1.4,0.2-1.8,0.7c0.2,0.1,0.4,0.3,0.6,0.5C33.4,22.2,33.4,21.9,33.6,21.9z"/>
				<path class="st0" d="M41.1,22.3L41.1,22.3L41.1,22.3z"/>
				<path class="st0" d="M4.4,19.7c-0.2,0-0.2,0.1-0.3,0.1c0.1,0,0.2,0.1,0.2,0.1C4.4,19.9,4.4,19.8,4.4,19.7z"/>
				<path class="st0" d="M387.8,18.2c0,0.1,0.1,0.1,0.2,0.2c0.1,0,0.2,0.1,0.3,0.1C388.2,18.3,388.1,18.1,387.8,18.2z"/>
				<path class="st0" d="M268.1,18.9c0,0.1,0,0.2,0.1,0.1c0.1-0.7-0.6-0.2-0.7,0.1C267.9,19.3,267.8,19,268.1,18.9z"/>
				<path class="st0" d="M304.8,19.8c-0.1-0.5,0.7,0,0.9,0.1c0.2-0.4-0.2-0.4-0.2-0.7c-0.5-0.1-0.7,0.2-0.4-0.2
					c-0.4,0-0.4-0.2-0.7-0.3c0,0.5,0.2,0.4-0.2,0.6C304.8,19.6,304.4,19.4,304.8,19.8z"/>
			</g>
			<path class="st0" d="M363.2,16.9L363.2,16.9L363.2,16.9z"/>
		</g>
	</g>
</g>
</svg>
