<?xml version="1.0" encoding="utf-8"?>
<!-- Generator: Adobe Illustrator 28.4.1, SVG Export Plug-In . SVG Version: 6.00 Build 0)  -->
<svg version="1.1" id="Layer_1" xmlns="http://www.w3.org/2000/svg" xmlns:xlink="http://www.w3.org/1999/xlink" x="0px" y="0px"
	 viewBox="0 0 128 128" style="enable-background:new 0 0 128 128;" xml:space="preserve">
<image style="overflow:visible;" width="2600" height="2968" xlink:href="C6E4A9A2.jpg"  transform="matrix(1 0 0 1 -7017.4229 -3750.3462)">
</image>
<path d="M114.3,20.5c0,0,1.6,66.8-52,59.9c-53.6-6.9-43.1-76-43.1-76S-21.2,79,20.5,137.3c33.9,44.4,67.8,10.5,67.8,10.5
	C144.9,92.2,114.3,20.5,114.3,20.5z M38.3,141C17,125.2,12.1,70.5,14.6,80.3c2.5,9.9,22.2,19.9,33.9,31.3S59.5,156.8,38.3,141z
	 M87.5,138.1c-19.7,11.8-20.3-13.6-9.5-22.1s29.1-16,31.4-23.4S107.1,126.3,87.5,138.1z"/>
</svg>
