<?xml version="1.0" encoding="utf-8"?>
<!-- Generator: Adobe Illustrator 26.1.0, SVG Export Plug-In . SVG Version: 6.00 Build 0)  -->
<svg version="1.1" id="a" xmlns="http://www.w3.org/2000/svg" xmlns:xlink="http://www.w3.org/1999/xlink" x="0px" y="0px"
	 viewBox="0 0 390 25" style="enable-background:new 0 0 390 25;" xml:space="preserve">
<style type="text/css">
	.st0{fill:#FFFFFF;}
</style>
<g>
	<path class="st0" d="M313,20.8C313,20.8,313.1,20.8,313,20.8C313.1,20.8,313,20.8,313,20.8z"/>
	<path class="st0" d="M29.2,21.6c0.2-0.1,0.4-0.1,0.6-0.1c-0.3,0-0.5-0.1-0.7-0.2C29,21.5,29,21.6,29.2,21.6z"/>
	<path class="st0" d="M252.5,18.4c0,0,0.1,0,0.1,0C252.6,18.4,252.6,18.4,252.5,18.4z"/>
	<path class="st0" d="M51.8,20C51.8,20,51.8,20,51.8,20c0,0,0.1,0,0.1,0C51.9,20,51.8,20,51.8,20z"/>
	<path class="st0" d="M68.4,20C68.4,20,68.5,20.1,68.4,20C68.5,20.1,68.4,20,68.4,20z"/>
	<path class="st0" d="M51.7,20.1C51.7,20.1,51.8,20.1,51.7,20.1C51.7,20.1,51.7,20.1,51.7,20.1z"/>
	<path class="st0" d="M51.9,20C51.9,20,51.9,20,51.9,20C51.9,20,51.9,20,51.9,20C51.9,20,51.9,20,51.9,20z"/>
	<path class="st0" d="M30.1,21.6c0.3,0.1,0.5,0.3,0.7,0.3c0-0.1,0-0.1,0-0.2C30.5,21.7,30.3,21.6,30.1,21.6z"/>
	<path class="st0" d="M40.5,22.4c0-0.1,0-0.3,0-0.4c-0.1,0.1-0.3,0.3-0.3,0.1c-0.2,0-0.1,0.1,0,0.3C40.3,22.4,40.4,22.4,40.5,22.4z"
		/>
	<path class="st0" d="M268.1,18.9C268.1,19,268.1,19.1,268.1,18.9c0.2-0.6-0.5-0.1-0.6,0.2C267.9,19.3,267.8,19,268.1,18.9z"/>
	<path class="st0" d="M75,21.9C75,21.9,75.1,22,75,21.9C75.1,22,75,21.9,75,21.9z"/>
	<path class="st0" d="M399.9,20.2c-1.1-0.2-1.7-0.9-3-1.2c0,0.2-0.1,0.4,0.1,0.4c-0.2,0.3-0.3-0.3-0.4-0.4c-0.1,0.1-0.5,0-0.5,0.3
		c-0.2-0.2-0.2-0.4-0.7-0.3c0.2,0.6-0.3-0.1-0.5,0.6c-0.2-0.3-0.5-0.2-0.8-0.3v-0.4c-1.1-0.2-1.7-0.9-3-1.2c0,0.2-0.1,0.4,0.1,0.4
		c-0.2,0.3-0.3-0.3-0.4-0.4c-0.1,0.1-0.5,0-0.5,0.3c-0.2-0.2-0.2-0.4-0.7-0.3c0.2,0.6-0.3-0.1-0.5,0.6c-0.2-0.4-0.7-0.2-1-0.3
		c0,0.1,0,0.2,0,0.2c-0.1,0-0.2-0.1-0.3,0c-0.1,0-0.1,0-0.2,0c-0.8,0-1.9,0.3-2.6,0.2c0,0,0,0,0,0c0.7,0,1.6-0.2,2.3-0.2
		c-1-0.4-2.4-0.8-3.1-0.7c0,0.2,0.2,0.3,0.3,0.2c0,0.6-1.5-0.7-2-0.4c-0.1-0.8-2.4-0.2-3.5-0.2c-0.2,0-0.4-0.3-0.4-0.3
		s-1.6,0.8-2.1,0.1c0.1,0.4-2,0-1.7-0.3c-0.5-0.1-0.4,0.4-0.9,0.2c0.1,0.2,0.5,0.2,0.7,0.3c-0.3,0.1-0.6,0.1-0.8,0.1
		c-0.1,0-0.1,0-0.2,0c-0.9-0.1-1.5-0.5-2.2-0.9c-0.2,0-0.3,0.1-0.3,0.4c-0.3,0,0-0.5-0.1-0.7c-0.4,0.3-0.8,0.1-1.1,0.4
		c-1-0.8-2.6-0.3-3-0.6c0.1,0.2-0.5,0.2-0.3,0.4c-0.7,0.3-0.6-0.4-1.4-0.4c-0.3,0.1,0.2,0.5,0.4,0.6c0,0.3-0.8-0.6-1.4-0.6
		c-0.4,0.1,0.3,0.4,0.1,0.8c-0.8-0.5-0.3-0.5-0.8-1c-0.2,0-0.2,0.3-0.2,0.5c-0.6-0.6-1.3-0.9-1.9-0.3c-0.1-0.8-0.7,1-0.5,0.3
		c-0.5,0.4-0.8-0.8-1.1-0.4c-0.3-0.1-0.1,0.2,0,0.3c-0.6,0.4-1.5-0.7-1.7,0.2c0.1-0.5-0.2-0.3-0.8-0.3c-0.3,0-0.1-0.3,0-0.4
		c-0.3-0.1-0.3,0.3-0.7,0.2c-0.7,0.4-1.5-0.1-2.3-0.4c-0.4,0.1,0.2,0.4,0.1,0.7c-0.1-0.2-0.7-0.5-0.6,0.1c-0.3,0-0.1-0.4-0.4-0.4
		s-0.8,0.8-0.9,0.1c-0.3,0-0.1,0.4-0.4,0.5c-0.5-0.1,0.3-0.7-0.1-0.7c-0.6-0.1-0.1,0.3-0.2,0.5c-0.1-0.5-1.2,0.1-0.8-0.5
		c-0.5,0.1-0.8,0.5-1.3,0.1c0.3,0.3,0.1,0.2,0.2,0.7c-0.5-0.2-0.7,0.2-1.3-0.2c-0.3,0.2,0,0.2-0.1,0.5c-0.7,0.2-2.7-0.8-2.8-0.1
		c-0.7,0.1-1.6-0.5-2.2-0.1c-0.5-0.6-1.3,0-2-0.4c-0.1,0.2,0.2,0.4,0,0.4c-0.5-0.1,0-0.2-0.2-0.5c-1.1,0.1-0.2-0.2-1.3-0.2
		c0,0.2,0.3,0.1,0.4,0.2c-1.2,0.2-1.3-0.1-2-0.3c-0.3,0-0.1,0.5-0.2,0.6c-0.3,0.2-2-0.4-1.5,0.1c-0.4,0.4-1.5-0.8-1.6,0.1
		c-0.3-0.5-1-0.2-0.7,0.2c0.1,0.1,0.2,0.1,0.2,0.2c-0.1-0.1-0.1-0.1-0.2-0.2c-0.5-0.3-1.7-0.6-2.7-0.4c0.1,0.1,0.3,0.2,0.2,0.4
		c-0.3,0.3-0.8,0-1-0.2c-0.2,0.4,0.5,0.1,0.2,0.5c-0.6,0-1.3-0.2-1.4,0.3c-0.4-0.3-0.2-0.6-0.7-0.6c-0.4,0,0.5,0.3-0.1,0.5
		c-0.3-0.9-2.3-0.3-3.3,0.1c0.6,0.7-1,1.4-1.8,1.4c0-0.1,0.1-0.6,0.2-0.5c-0.4-0.1-0.9,0.8-1.1,0.5c-0.5,0,0.2-0.2-0.2-0.3
		c-0.3-0.4-1.3,0-1.1-0.2c-0.4-0.1-0.4-0.4-0.5-0.2c-0.9-0.7-2.7,1.3-2.9,0.7c-0.2,0.1-0.3-0.4-0.4-0.2c-0.6,0-0.8-0.3-1.3-0.4
		c-0.8,0.8-2.3,0-3,0.5c0.3,0.3,0.7,0.5,0.7,0.7c-0.3,0.3-0.5-0.3-0.9-0.3c0,0.2,0.2,0.3,0.4,0.3c-0.3,0.2-0.9,0.1-1.3,0.1
		c0-0.3-0.7-0.2-0.2-0.5c-0.3,0-1.4-0.1-0.8,0.2c-0.1,0.3-0.7-0.1-0.7-0.3c-0.2,0.1-0.3,0.3-0.3,0.5c-0.5-0.3-0.9,0.2-1.3-0.1
		c-0.2-0.1-0.5,0.3-0.2,0.4c-0.2,0.3-0.5-0.4-0.7-0.6c-0.5,0-0.5,0.5-1.1,0.3c0,0.1,0.2,0.1,0.3,0.2c-0.5-0.1-1.1,0.5-1.5-0.3
		c-0.2,0.1-0.2,0.2-0.2,0.3c-0.1-0.1-0.2-0.2-0.2-0.3c-0.5-0.1-0.7,0.2-0.4-0.2c-0.4,0-0.4-0.2-0.7-0.3c0,0.5,0.2,0.4-0.2,0.6
		c0.6,0.3,0.2,0.1,0.6,0.5c-0.1-0.5,0.6-0.1,0.8,0.1c0,0.1-0.1,0.2-0.2,0.2c0.5,0,0.5-0.1,0.9,0.1c-1.4,0.3-2.2-0.9-3.1-1
		c-0.2,0-0.1,0.3,0.2,0.4c-0.8-0.2-2.4-0.9-2.3,0c-1.1-0.5-1.9,0.1-3.2-0.7c0.1,0.4-0.8,0-1.2,0.2c0.6,0.3,0.2,0.3-0.1,0.8
		c0-0.5-1-0.1-1.5-0.1c-1.2-0.1-2.5-0.7-3.5-0.6c-0.2,0.1,0,0.2-0.3,0.4c-1.3-0.8-2.2,0.2-3.1,0.3c0.1,0-0.2-0.5-0.9-0.2
		c-1.2,0.5-3.3,0.1-5-0.3c-0.5,0-1.2,0.5-1.6,0c0.1,0.4-0.7,0-0.5,0.2c-0.4,0.1-1.3-0.6-1.5,0c-0.3-0.8-1.1-0.3-1.7-0.5
		c0.6,0.2-0.6,0.5,0.4,0.6c-1-0.1-2.7-0.6-3.7-1c-0.5,0.3-1.1,0.4-1.1,0.8c-0.3-0.1,0-0.6-0.2-0.7c-0.4-0.2-0.7,0.3-0.6-0.2
		c-0.2,0.2-0.8,0.4,0,0.4c-0.5,0.3-1.3-0.2-1.6,0c-0.1,0.1,0,0.2,0.2,0.3c-1.2-0.2-2.1,0.6-4.4,0.1c-0.2,0,0.2-0.2-0.1-0.3
		c-0.6-0.2-0.3,0.4-0.9,0.2c0.1,0.4,0.2,0.2,0.6,0.2c-0.5,0.8-1.8-0.3-2.6-0.4c-0.7,0.2-0.5,0.4-0.8,0.8c-0.2,0-0.4,0-0.7,0
		c-0.1-0.1-0.3-0.1-0.4-0.2c-0.3-0.2-0.7-0.3-1-0.5c-0.2,0-0.4,0.1-0.6,0.2c-0.2,0.1-0.4,0.2-0.6,0.2c0.1,0,0.2-0.1,0.2-0.1
		c-0.5-0.1-0.9-0.2-1.4-0.3c-0.2,0-0.5,0.1-0.6,0.1c-0.4-0.1-0.9-0.5-0.3,0c-0.7-0.3-1.9-0.7-2.8-1.3c-0.6,0.1-0.9,0.3-1.4,0.4
		c0.1,0.1-0.5,0.8-0.5,0.7c-0.1,0.1-0.4,0-0.4,0c-0.1,0-0.1,0.1-0.2,0.1c0,0,0-0.1,0-0.1c0,0,0,0,0,0.1l-0.1-0.1
		c-0.2-0.2-1.5,0.2-0.9,0.4c-1.9-0.5-3-0.2-4.9-1.1c-0.1,0.2,0.5,0.4,0.1,0.4c-1-1.1-2.6,0.4-3.6-0.6c-0.2,0-0.1,0.2-0.2,0.4
		c-0.2-0.6-0.6-0.3-1.3-0.5c-0.3,0,0.2,0.4,0.2,0.5c-0.5,0-0.8-0.5-1.4-0.6c-1.1,0.4-2.1,0.2-3.4,0.1c-0.1,0.2-0.2,0.2-0.5,0.5
		c-0.7-0.4-0.7,0.1-1.1,0.2c-1.7-0.3-5.3-0.8-7.5-0.3c-0.1,0-0.3-0.1-0.4-0.1c-0.2,0-0.3,0-0.4,0c-0.2,0-0.3,0-0.5,0c0,0,0,0,0,0
		c-0.2,0-0.5-0.1-0.5-0.2c0.2,0,0.3,0,0.5,0c-0.2-0.1-0.4-0.2-0.5-0.1c-0.2-0.1,0-0.1,0-0.3c-2,0.2-4.2-1.3-5.8-1
		c0.1,0.2,0.9,0.3,1,0.2c0.1,0.1,0.1,0.2,0.3,0.3c-0.3,0.3-0.8-0.1-0.5,0.5c-1.2-0.7-2.1,0.3-3.2-0.4c-0.3-0.1-0.8,0.3-0.5,0.5
		c-0.7,0.1-1.4-0.7-2.1-1c-0.3,0.1-0.2,0.5-0.8,0.3c0.1,0.1,0.2,0.2,0.4,0.3c-0.1,0.1-1.5-0.5-1.1-0.7c-0.2,0.2-0.9,0.1-1-0.1
		c-0.3,0.5,0.7,0.1,0.4,0.6c-0.1-0.2-1.1-0.4-0.9,0.2c-0.6-0.5-2.4-0.6-2.9-0.8c-1-0.4-1.9-0.1-3.2,0.5c0,0.1,0.2,0.1,0.3,0.2
		c-1.4,0.3-1.5-0.6-3-0.5c0.1,0.2,0.3,0.3,0.6,0.3c0.2,0.3-0.9-0.1-1-0.3c-0.3,0.2-0.5,0.2-0.4,0.6c-0.3-0.1-0.2-0.4-0.5-0.4
		c-0.2,0,0,0.2,0,0.4c-1.2-0.1-4.3-1-4.2,0.3c-1.3-0.2-2.2,0.2-3.1,0.4c0,0,0,0,0-0.1c0,0,0,0,0,0c0,0,0,0,0,0c0,0,0-0.1-0.1-0.1
		c0-0.1-0.1-0.1-0.1-0.2h-0.1c-0.1,0-0.3,0.1-0.5,0c-0.1-0.2-0.4-0.1-0.1-0.4c0,0,0,0-0.1,0c-0.5,0-1.4,0.3-2,0
		c-0.5,0.9-2.5-0.1-2.9,0.7c-0.1-0.1-0.4-0.4-0.8-0.5c0.5-0.7,2.4,0.2,2.9-0.7c0.6,0.3,1.5,0,2,0c-0.4-0.2-0.7-0.4-1.2-0.5
		c-1.2-0.2-3.2,0.9-3.8-0.6c-0.1,0.1-0.3,0.1-0.6,0.1c-0.1-0.3-0.4-0.1-0.1-0.4c-0.5-0.1-1.4,0.3-2.1,0c-0.5,0.9-2.5-0.1-2.9,0.7
		c-0.2-0.3-1.4-1.1-1.6-0.3c-0.1-0.6-2.4-0.3-1.1,0.3c-0.2,0.1-0.9-0.6-1.2-0.9c-0.5,0.1,0,0.3-0.3,0.5c-0.2-0.6-0.4,0.2-1.1-0.4
		c0,0.3-0.7,0.3-0.8,0.8c-0.7-0.6-0.8-0.2-1.7-0.5c-0.2,0.4-2,1.1-2.7,0.3c-1.8,0.9-4.2,0.7-6.1,0.1c-0.9-0.1-1.9,0.7-3.1,0.1
		c-0.2,0-0.2,0.2,0,0.3c-1.1,0-3.2-0.2-3.8,0.7c-0.9-0.8-4.4,0-5.5-0.7c-2.5,0.3-4.3,1.2-7.3,0.6c-0.4,0.3-0.2,0.4-0.1,0.8
		c-1.7-0.8-4.1-0.6-5.2,0.5c0.1-0.1,0.2-0.2,0.2-0.4c-1.4,0.2-3.3,0.5-4.7,1.2c-0.5-1-2.3-0.5-3.1-1.2c-0.8,0.9-4,0.8-5.7,0.3
		c-0.1,0.6-1.8,0-2.5,0.3c0.1-0.2-2.3-0.6-2.9-0.2c0-0.2,0.1-0.2,0.3-0.2c-1.6-0.6-2.5-0.6-4.1-0.7c0.1,0.1,0.1,0.3,0.1,0.5
		c-0.1-0.5-1.4-0.8-1.3-0.2c-0.3,0-0.1-0.4-0.6-0.3c-0.3,0.4-0.9,0.4-1.1,0.8c-0.4-0.1-0.5-0.1-1-0.3c-0.4,0,0.2,0.2-0.1,0.5
		c-1.4-0.1-2.9-0.9-3.2-0.3c-0.3,0-0.5-0.2-0.9,0.2c0-0.1,0-0.3,0-0.4c-0.9,1-2.2,0.4-3.6,0.3c-0.2,0-0.1,0.2-0.2,0.4
		c-1.9-0.3-2.4,0.2-3.8-0.3c-0.2,0-0.1,0.2,0,0.4c-1.3-0.3-2.5,0.1-3.8,0.1c-0.1,0.4,0.3,0.4,0.2,0.8c-0.3,0.2-0.4-0.1-0.7-0.2
		c0.1,0.1,0.1,0.2,0.3,0.3c-0.1,0.5-1.1-0.3-1.2,0.4c-1.1-0.4-2.4-0.2-3.8-0.8c-1.1,0.5-2.7,0.1-3.8-0.3c-0.7,0.5-1.8,0.7-2.1,0.6
		c-0.3,0.7-1,0.4-1.5,1.3c-0.2-0.9-1.2-0.1-1.4-0.6c-0.2,0-0.1,0.2-0.2,0.4c-1.5-0.7-2.8-0.3-4.2-1C78.6,20.5,78,20,77,20.1
		c-0.1,0.3,0.1,0.4,0.4,0.4c-0.4,0.4-1.9-0.3-0.4,0c-0.1-0.2-0.2-0.4-0.1-0.7c-0.3,0-0.1,0.4-0.4,0.5c-0.4-0.8-1.6-0.6-2.5-0.6
		c0.2,0.2,0.3,0.4,0.7,0.4c-1.6-0.1-3.3-0.5-5,0.1c-0.2-0.1-0.4-0.2-0.4-0.6c-0.2,0.3-0.5,0.7-0.8,0.5c0.1,0.2-0.2,0.2,0,0.3
		c-0.9-0.3-1.2,0.6-2.5,0.2c-0.2,0,0,0.1,0.1,0.1c-2,1.2-5.5-1.8-8.2-0.4c-1.1-0.4-2.3,0-3.4-0.4c0.5,0.7-1.6-0.5-2.4,0.3
		c0.1-0.2,0-0.3-0.2-0.2c0,0,0,0,0.1,0c0.1,0.1,0,0-0.1,0c-0.1,0-0.1,0.1-0.1,0.2c0,0-0.1,0-0.1-0.1c-0.1,0.2-0.3,0.3-0.8,0.2
		c0.2,0.2,0.1,0.5,0.1,0.8c-0.2,0.4-0.1-0.5-0.1-0.7c-1.9-0.7-2.7,0.7-3.9,0.5c-0.1,0.3,0.3,0.3,0.4,0.4c-0.1,0.3-0.7,0.4-0.9,0.2
		c0.1-0.2,0.2,0.1,0.3-0.1c0-0.1-0.3-0.1-0.3-0.3c-0.8,0.3-1,0.3-1.9,0.1c-0.3,0.2-0.4,0.4-0.5,0.7c-0.7,0,0.2-0.3,0.1-0.6
		c-0.7,0.8-1.2,0.1-1.8,1.2c-0.2-0.2-0.2-0.4-0.4,0c-0.2-0.1,0.1-0.2,0-0.4c-0.2,0-0.3,0.1-0.4,0.3c0.1,0.1,0.2,0.2,0.3,0.3
		c0,0,0,0,0,0c-0.2,0.1-0.4,0.1-0.6,0.1c-0.1,0-0.2,0-0.3-0.1c0,0-0.1,0-0.1-0.1c0,0,0,0,0,0.1c-0.1,0.4,0.3-0.1,0.3,0.2
		c-0.6,0.6-1.6,0.1-1.9,0.9c-1.3-0.5-3.3-0.5-4.3-1c1.1,0.3,2.4,0.3,3.5,0.7c0.3-0.8,1.2-0.3,1.9-0.9c0-0.3-0.4,0.2-0.3-0.2
		C40,22.2,40,22,39.7,22.1c-0.2,0-0.2,0.1,0,0.2c-0.3-0.2-0.7-0.6-0.8-0.9c-0.2,0.3-0.7,0.2-0.8,0.6c-0.2-0.2,0.2-0.6-0.5-0.7
		c-0.1,0.4-0.1-0.1-0.3,0.4c-0.1-0.4-0.6,0-0.3-0.4c-0.3-0.1-0.5,0-0.5,0.2c-0.3-0.2-0.5-0.4-0.7-0.6C35.2,21,35,21.3,34.3,21
		c-0.2,0.6,0.3-0.1,0.3,0.3c-0.6,0.5-1.3,0.3-1.7,0.6c0,0,0,0,0,0c0,0,0,0,0,0c0,0-0.1,0.1-0.1,0.1c0.1,0,0.1,0.1,0.2,0.1
		c-0.3,0-1.2-0.2-1.3-0.4c-0.1,0-0.2,0.1-0.2,0.3c0,0.1,0,0.2,0,0.2c-0.2-0.1-0.4-0.2-0.7-0.3c-0.1,0-0.2,0-0.3,0
		c-0.2,0-0.4,0-0.6,0.1c-0.1,0-0.1-0.2-0.1-0.3v-0.1l-0.1,0.1c-0.5,0.1-1.8-0.5-2.4,0.1c-0.2-0.2-0.3-0.3-0.6-0.5
		c0.7-0.2,1.6,0.2,2.1,0.1c-0.5-0.2-0.9-0.4-1.1-0.8c-0.2,0-0.2,0.3-0.2,0.5c-0.3-0.3-0.7-0.6-1.2-0.8c0.8,0.5-1.1,0.1-1.2-0.2
		c-0.2,0-0.2,0.3-0.2,0.5c-0.3-0.1-0.7-0.6-1.6-0.3c-0.2,0-0.1-0.2-0.1-0.4c-0.3,0.4-1.9-0.5-2.5,0.2c-0.3-0.2-0.4-0.4-0.8-0.7
		c-0.1,0.1-0.2,0.2-0.3,0.4c1.1,0.1-0.3,0.6,0.3,1.1c-0.3,0.2-0.7-0.6-0.8-1c-0.3,0.3-0.7,0.5-0.8,1c-1,0-2.3-0.5-2.8-1.3
		c-0.7-0.1-1,0.4-1.8,0c-0.2,0.5-0.3,1,0,1.4c0.1,0.3-0.4-0.7-0.6-1c-0.2,0.4-0.8,0.2-0.9,0.3C12,20.2,12,20,12,19.8
		c-0.3-0.1-0.6,0-0.6,0.2c-0.2-0.1-0.1-0.3-0.1-0.5c-0.2,0.1-0.4,0.2-0.5,0.3c-0.2-0.3-0.9-0.7-0.7,0.1c-0.5,0-0.1-0.6-0.5-0.7
		c-0.5,0.2,0.5,0.5-0.1,0.8c-0.1-0.1,0-0.4-0.2-0.7c-0.2,0-0.3,0.2-0.5,0.2c-0.1,0.3,0.7,0,0.4,0.4c-0.3-0.3-0.5,0.1-0.7-0.2
		c0.4,0.5,0,0.4-0.1,0.9c0-0.7-1.7-0.6-1.3-0.2c-0.2,0.2-0.4-0.6-0.7-0.5c-0.2,0,0,0.2,0,0.4c-0.3,0-0.6-0.8-0.7-0.2
		c-0.2,0-0.1-0.2-0.1-0.4c-0.2,0-0.1,0.2-0.2,0.4C5.2,20,5,19.8,4.7,19.6c-0.1,0-0.2,0.1-0.2,0.2c0,0-0.1,0-0.1,0c0,0,0,0,0-0.1
		c-0.1,0-0.1,0-0.1,0c-0.7-0.3-1.3-0.6-1.7-1c-1.9-0.2-3-0.3-4.8-0.6c-0.1,0-0.2,0-0.3-0.1c0,0.1,0.1,0.1,0.2,0.2
		c-2.2-0.1-4.4-0.6-7.1-0.4c-0.4,0,0.2,0.2-0.1,0.5c-0.3-0.2-0.4-0.5-0.8-0.6c-0.1,0.3,0.6,0.1,0.4,0.6c-0.6,0-1-0.1-1.5-0.2v12.2
		h406.6h5.8V20.2H399.9z"/>
</g>
</svg>
