<?xml version="1.0" encoding="utf-8"?>
<!-- Generator: Adobe Illustrator 26.1.0, SVG Export Plug-In . SVG Version: 6.00 Build 0)  -->
<svg version="1.1" id="a" xmlns="http://www.w3.org/2000/svg" xmlns:xlink="http://www.w3.org/1999/xlink" x="0px" y="0px"
	 viewBox="0 0 390 25" style="enable-background:new 0 0 390 25;" xml:space="preserve">
<style type="text/css">
	.st0{opacity:0.875;fill:#FFFFFF;enable-background:new    ;}
	.st1{fill:#FFFFFF;enable-background:new    ;}
</style>
<g>
	<path class="st0" d="M138,8.9C138.2,8.7,137.9,8.7,138,8.9L138,8.9z"/>
	<path class="st0" d="M137,9.5h-0.1C136.9,9.5,136.9,9.5,137,9.5z"/>
	<path class="st0" d="M76.4,7.2C76.4,7.2,76.3,7.2,76.4,7.2C76.3,7.2,76.4,7.2,76.4,7.2z"/>
	<path class="st0" d="M79,6.8L79,6.8C79.1,6.8,79,6.8,79,6.8C79,6.7,79,6.8,79,6.8z"/>
	<path class="st0" d="M115.5,7.5C115.6,7.6,115.6,7.5,115.5,7.5L115.5,7.5z"/>
	<path class="st0" d="M358.7,6.3c0.3,0,0.5,0.1,0.7,0.1c-0.3-0.1-0.5-0.3-0.7-0.3C358.7,6.1,358.7,6.2,358.7,6.3z"/>
	<path class="st0" d="M331.7,6.5L331.7,6.5C331.7,6.5,331.8,6.5,331.7,6.5L331.7,6.5z"/>
	<path class="st0" d="M321.1,7.9C321.1,7.9,321,7.8,321.1,7.9C321,7.8,321.1,7.9,321.1,7.9z"/>
	<path class="st0" d="M331.9,6.3c0,0.1-0.1,0.1-0.1,0.2C331.9,6.4,332.1,6.3,331.9,6.3z"/>
	<path class="st0" d="M121.4,9c0-0.1,0-0.2-0.1-0.1c-0.1,0.7,0.6,0.2,0.7-0.1C121.6,8.6,121.7,9,121.4,9z"/>
	<path class="st0" d="M84.7,8.1c0.1,0.5-0.7,0-0.9-0.1C83.6,8.4,84,8.5,84,8.7c0.5,0.1,0.7-0.2,0.4,0.2c0.4,0,0.4,0.2,0.7,0.3
		c0-0.5-0.2-0.4,0.2-0.6C84.7,8.4,85.1,8.5,84.7,8.1z"/>
	<path class="st0" d="M314.9,6C314.9,6,314.8,5.9,314.9,6C314.8,5.9,314.9,6,314.9,6z"/>
</g>
<path class="st1" d="M199.3,11c-0.6-0.3-1.5,0-2,0c0.4,0.2,0.7,0.4,1.2,0.5c1.2,0.2,3.2-0.9,3.8,0.6c0.1-0.1,0.3-0.1,0.6-0.1
	c0.1,0.3,0.4,0.1,0.1,0.4c0.5,0.1,1.4-0.3,2.1,0c0.5-0.9,2.5,0.1,2.9-0.7c0.2,0.3,1.4,1.1,1.6,0.3c0.1,0.6,2.4,0.3,1.1-0.3
	c0.2-0.1,0.9,0.6,1.2,0.9c0.5-0.1,0-0.3,0.3-0.5c0.2,0.6,0.4-0.2,1.1,0.4c0-0.3,0.7-0.3,0.8-0.8c0.7,0.6,0.8,0.2,1.7,0.5
	c0.2-0.4,2-1.1,2.7-0.3c1.8-0.9,4.2-0.7,6.1-0.1c0.9,0.1,1.9-0.7,3.1-0.1c0.2,0,0.2-0.2,0-0.3c1.1,0,3.2,0.2,3.8-0.7
	c0.9,0.8,4.4,0,5.5,0.7c2.5-0.3,4.3-1.2,7.3-0.6c0.4-0.3,0.2-0.4,0.1-0.8c1.7,0.8,4.1,0.6,5.2-0.5c-0.1,0.1-0.2,0.2-0.2,0.4
	c1.4-0.2,3.3-0.5,4.7-1.2c0.5,1,2.3,0.5,3.1,1.2c0.8-0.9,4-0.8,5.7-0.3c0.1-0.6,1.8,0,2.5-0.3c-0.1,0.2,2.3,0.6,2.9,0.2
	c0,0.2-0.1,0.2-0.3,0.2c1.6,0.6,2.5,0.6,4.1,0.7c-0.1-0.1-0.1-0.3-0.1-0.5c0.1,0.5,1.4,0.8,1.3,0.2c0.3,0,0.1,0.4,0.6,0.3
	c0.3-0.4,0.9-0.4,1.1-0.8c0.4,0.1,0.5,0.1,1,0.3c0.4,0-0.2-0.2,0.1-0.5c1.4,0.1,2.9,0.9,3.2,0.3c0.3,0,0.5,0.2,0.9-0.2
	c0,0.1,0,0.3,0,0.4c0.9-1,2.2-0.4,3.6-0.3c0.2,0,0.1-0.2,0.2-0.4c1.9,0.3,2.4-0.3,3.8,0.3c0.2,0,0.1-0.2,0-0.4
	c1.3,0.3,2.5-0.1,3.8-0.1c0.1-0.4-0.3-0.4-0.2-0.8c0.3-0.2,0.4,0.1,0.7,0.2c-0.1-0.1-0.1-0.2-0.3-0.3c0.1-0.5,1.1,0.3,1.2-0.4
	c1.1,0.4,2.4,0.2,3.8,0.8c1.1-0.5,2.7-0.1,3.8,0.3c0.7-0.5,1.8-0.7,2.1-0.6c0.3-0.7,1-0.4,1.5-1.3c0.2,0.9,1.2,0.1,1.4,0.6
	c0.2,0,0.1-0.2,0.2-0.4c1.5,0.7,2.8,0.3,4.2,1c0.8-0.7,1.4-0.2,2.4-0.3c0.1-0.3-0.1-0.4-0.4-0.4c0.4-0.4,1.9,0.3,0.4,0
	c0.1,0.2,0.2,0.4,0.1,0.7c0.3,0,0.1-0.4,0.4-0.5c0.4,0.8,1.6,0.6,2.5,0.6c-0.2-0.2-0.3-0.4-0.7-0.4c1.6,0.1,3.3,0.5,5-0.1
	c0.2,0.1,0.4,0.2,0.4,0.6c0.2-0.3,0.5-0.7,0.8-0.5c-0.1-0.2,0.2-0.2,0-0.3c0.9,0.3,1.2-0.6,2.5-0.2c0.2,0,0-0.1-0.1-0.1
	c2-1.2,5.5,1.8,8.2,0.4c1.1,0.4,2.3,0,3.4,0.4c-0.5-0.7,1.6,0.5,2.4-0.3c-0.1,0.2,0,0.3,0.1,0.2c0.1,0.1,0.2,0.2,0.4,0.3
	c0.1-0.2,0.2-0.5,0.9-0.3c-0.2-0.2-0.1-0.5-0.1-0.8c0.2-0.4,0.1,0.5,0.1,0.7c1.9,0.7,2.7-0.7,3.9-0.5c0.1-0.3-0.3-0.3-0.4-0.4
	c0.1-0.3,0.7-0.4,0.9-0.2c-0.1,0.2-0.2-0.1-0.3,0.1c0,0.1,0.3,0.1,0.3,0.3c0.8-0.3,1-0.3,1.9-0.1c0.3-0.2,0.4-0.4,0.5-0.7
	c0.7,0-0.2,0.3-0.1,0.6c0.7-0.8,1.2-0.1,1.8-1.2c0.2,0.2,0.2,0.4,0.4,0c0.2,0.1-0.1,0.2,0,0.4c0.2,0,0.3-0.1,0.4-0.3
	c-0.2-0.2-0.4-0.4-0.6-0.5c-0.2,0.1-0.4,0.2-0.7,0.1c0.1-0.1,0.1-0.1,0.1-0.2c0.2,0,0.3-0.1,0.3-0.2c0.2,0.2,0.4,0.3,0.6,0.5
	c0,0,0,0,0.1,0.1c0.2,0,0.3-0.1,0.4-0.1c0.2-0.1,0.4-0.1,0.6-0.1c0.1,0,0.1,0,0.2,0c0,0,0,0.1,0.1,0l0,0c0,0,0,0,0.1,0
	c-0.1,0-0.2,0-0.3,0c0,0.1,0,0.3,0,0.4c0.1-0.1,0.3-0.3,0.3-0.1c0.2,0,0.1-0.1,0-0.3l0,0l0,0l0,0c0.1,0,0.1,0,0.1,0.1
	c0.1,0.2,0.1,0.4,0.4,0.3c0.2,0,0.2-0.1,0-0.2c0.3,0.2,0.7,0.6,0.8,0.9c0.2-0.3,0.7-0.2,0.8-0.6c0.2,0.2-0.2,0.6,0.5,0.7
	c0.1-0.4,0.1,0.1,0.3-0.4c0.1,0.4,0.6,0,0.3,0.4c0.3,0.1,0.5,0,0.5-0.2c0.3,0.2,0.5,0.4,0.7,0.6c0.6-0.1,0.8-0.4,1.5-0.1
	c0.2-0.6-0.3,0.1-0.3-0.3c0.6-0.5,1.4-0.2,1.8-0.7c0.2,0.1,0.4,0.2,0.6,0.3c-0.8-0.5,1.1-0.1,1.2,0.2c0.1,0,0.2-0.1,0.2-0.3
	c0-0.1,0-0.2,0-0.2c0.2,0.1,0.4,0.2,0.7,0.3c0.1,0,0.2,0,0.3,0c0.2,0,0.4,0,0.6-0.1c0,0,0.1,0,0.1,0.1c-0.2,0.1-0.4,0.1-0.6,0.1
	c0.3,0,0.4,0.1,0.6,0.2l0,0l0,0c0,0,0,0,0.1,0V6.4l0,0c0.5-0.1,1.8,0.5,2.4-0.1c0.1,0,0.1,0.1,0.2,0.1c-0.6,0.5-1.9,0-2.4,0.1
	c0.5,0.2,0.9,0.4,1.1,0.8c0.2,0,0.2-0.3,0.2-0.5c0.3,0.3,0.7,0.6,1.2,0.8c-0.8-0.5,1.1-0.1,1.2,0.2c0.2,0,0.2-0.3,0.2-0.5
	c0.3,0.1,0.7,0.6,1.6,0.3c0.2,0,0.1,0.2,0.1,0.4c0.3-0.4,1.9,0.5,2.5-0.2c0.3,0.2,0.4,0.4,0.8,0.7c0.1-0.1,0.2-0.2,0.3-0.4
	c-1.1-0.1,0.3-0.6-0.3-1.1c0.3-0.2,0.7,0.6,0.8,1c0.3-0.3,0.7-0.5,0.8-1c1,0,2.3,0.5,2.8,1.3c0.7,0.1,1-0.4,1.8,0
	c0.2-0.5,0.3-1,0-1.4c-0.1-0.3,0.4,0.7,0.6,1c0.2-0.4,0.8-0.2,0.9-0.3c0.2,0,0.1,0.2,0.1,0.4c0.3,0.1,0.6,0,0.6-0.2
	c0.2,0.1,0.1,0.3,0.1,0.5c0.2-0.1,0.4-0.2,0.5-0.3c0.2,0.3,0.9,0.7,0.7-0.1c0.5,0,0.1,0.6,0.5,0.7c0.5-0.2-0.5-0.5,0.1-0.8
	c0.1,0.1,0,0.4,0.2,0.7c0.2,0,0.3-0.2,0.5-0.2c0.1-0.3-0.7,0-0.4-0.4c0.3,0.3,0.5-0.1,0.7,0.2c-0.4-0.5,0-0.4,0.1-0.9
	c0,0.7,1.7,0.6,1.3,0.2c0.2-0.2,0.4,0.6,0.7,0.5c0.2,0,0-0.2,0-0.4c0.3,0,0.6,0.8,0.7,0.2c0.2,0,0.1,0.2,0.1,0.4
	c0.2,0,0.1-0.2,0.2-0.4c0.2,0.2,0.4,0.4,0.7,0.6c0.2,0,0.2-0.2,0.2-0.4c0.1,0,0.1,0.1,0.1,0.1c0.1,0,0.1,0,0.2,0.1L385,8.2
	c0.1,0,0.2,0,0.2-0.1c0.9,0.4,1.7,0.7,2.3,1.3c1.9,0.2,3,0.3,4.9,0.6c0,0,0.1,0,0.2,0.1c0.1,0,0.2-0.1,0.1-0.1
	c2.2,0.1,4.3,0.6,7.2,0.4c0.4,0-0.2-0.2,0.1-0.5c0.3,0.2,0.4,0.5,0.8,0.6c0.1-0.3-0.6-0.1-0.4-0.6c0.7,0.1,1.1,0.2,1.6,0.3V-1.5
	H-4.6h-5.8v9.2c1.1,0.2,1.7,0.9,3,1.2c0-0.2,0.1-0.4-0.1-0.4C-7.4,8.2-7.2,8.8-7.1,9C-7,8.8-6.6,9-6.6,8.6C-6.5,8.8-6.4,9-5.9,8.9
	C-6.1,8.3-5.6,9-5.4,8.3C-5.2,8.6-5,8.5-4.7,8.6V9c1.1,0.2,1.7,0.9,3,1.2c0-0.2,0.1-0.4-0.1-0.4c0.2-0.3,0.3,0.3,0.4,0.4
	c0.1-0.1,0.5,0,0.5-0.3c0.2,0.2,0.2,0.4,0.7,0.3c-0.2-0.6,0.3,0.1,0.5-0.6C0.5,10,1,9.8,1.3,9.9c0-0.1,0-0.2,0-0.2
	c0.1,0.1,0.2,0.2,0.4,0.1c0,0,0-0.1-0.1-0.1c0.1,0,0.2,0,0.3,0c0.1,0,0.1,0,0.2,0c1,0.4,2.2,0.7,2.9,0.6c0-0.2-0.2-0.3-0.3-0.2
	c0-0.6,1.5,0.7,2,0.4c0.1,0.8,2.4,0.2,3.5,0.2c0.2,0,0.4,0.3,0.4,0.3s1.6-0.8,2.1-0.1c-0.1-0.4,2,0,1.7,0.3c0.5,0.1,0.4-0.4,0.9-0.2
	c-0.1-0.2-0.5-0.2-0.7-0.3c0.3-0.1,0.6-0.1,0.9-0.1c-0.6,0-1.3-0.1-1.8-0.5c-0.3,0.3-0.6,0.1-1.1,0.4l0,0c0.4-0.3,0.8-0.1,1.1-0.4
	c0.5,0.4,1.2,0.5,1.8,0.5l0,0h0.1l0,0c0.5,0,0.9,0,1.1,0.1c0,0,0,0,0-0.1c0,0,0,0,0,0.1c-0.2-0.1-0.6-0.1-1.1-0.1
	c0.9,0.1,1.5,0.5,2.2,0.9c0.2,0,0.3-0.1,0.3-0.4c0.3,0,0,0.5,0.1,0.7c0.4-0.3,0.8-0.1,1.1-0.4c1,0.8,2.6,0.3,3,0.6
	c-0.1-0.2,0.5-0.2,0.3-0.4c0.7-0.3,0.6,0.4,1.4,0.4c0.3-0.1-0.2-0.5-0.4-0.6c0-0.3,0.8,0.6,1.4,0.6c0.4-0.1-0.3-0.4-0.1-0.8
	c0.8,0.5,0.3,0.5,0.8,1c0.2,0,0.2-0.3,0.2-0.5c0.6,0.6,1.3,0.9,1.9,0.3c0.1,0.8,0.7-1,0.5-0.3c0.5-0.4,0.8,0.8,1.1,0.4
	c0.3,0.1,0.1-0.2,0-0.3c0.6-0.4,1.5,0.7,1.7-0.2c-0.1,0.5,0.2,0.3,0.8,0.3c0.3,0,0.1,0.3,0,0.4c0.3,0.1,0.3-0.3,0.7-0.2
	c0.7-0.4,1.5,0.1,2.3,0.4c0.4-0.1-0.2-0.4-0.1-0.7c0.1,0.2,0.7,0.5,0.6-0.1c0.3,0,0.1,0.4,0.4,0.4s0.8-0.8,0.9-0.1
	c0.3,0,0.1-0.4,0.4-0.5c0.5,0.1-0.3,0.7,0.1,0.7c0.6,0.1,0.1-0.3,0.2-0.5c0.1,0.5,1.2-0.1,0.8,0.5c0.5-0.1,0.8-0.5,1.3-0.1
	c-0.3-0.3-0.1-0.2-0.2-0.7c0.5,0.2,0.7-0.2,1.3,0.2c0.3-0.2,0-0.2,0.1-0.5c0.7-0.2,2.7,0.8,2.8,0.1c0.7-0.1,1.6,0.5,2.2,0.1
	c0.5,0.6,1.3,0,2,0.4c0.1-0.2-0.2-0.4,0-0.4c0.5,0.1,0,0.2,0.2,0.5c1.1-0.1,0.2,0.2,1.3,0.2c0-0.2-0.3-0.1-0.4-0.2
	c1.2-0.2,1.3,0.1,2,0.3c0.3,0,0.1-0.5,0.2-0.6c0.3-0.2,2,0.4,1.5-0.1c0.4-0.4,1.5,0.8,1.6-0.1c0.3,0.5,1,0.2,0.7-0.2
	c-0.1-0.1-0.2-0.1-0.2-0.2c0.1,0.1,0.1,0.1,0.2,0.2c0.5,0.3,1.7,0.6,2.7,0.4c-0.1-0.1-0.3-0.2-0.2-0.4c0.3-0.3,0.8,0,1,0.2
	c0.2-0.4-0.5-0.1-0.2-0.5c0.6,0,1.3,0.2,1.4-0.3c0.4,0.3,0.2,0.6,0.7,0.6c0.4,0-0.5-0.3,0.1-0.5c0.3,0.9,2.3,0.3,3.3-0.1
	c-0.6-0.7,1-1.4,1.8-1.4c0,0.1-0.1,0.6-0.2,0.5c0.4,0.1,0.9-0.8,1.1-0.5c0.5,0-0.2,0.2,0.2,0.3c0.3,0.4,1.3,0,1.1,0.2
	C68,9.7,68,10,68.1,9.8c0.9,0.7,2.7-1.3,2.9-0.7c0.2-0.1,0.3,0.4,0.4,0.2c0.6,0,0.8,0.3,1.3,0.4c0.8-0.8,2.3,0,3-0.5
	C75.4,8.9,75,8.7,75,8.5c0.3-0.3,0.5,0.3,0.9,0.3c0-0.2-0.2-0.3-0.4-0.3c0.5-0.1,1-0.1,1.5-0.1c0,0.3,0.7,0.2,0.2,0.5
	c0.3,0,1.4,0.1,0.8-0.2c0.1-0.3,0.7,0.1,0.7,0.3C78.9,9,79,8.8,79,8.6c0.5,0.3,0.9-0.2,1.3,0.1c0.2,0.1,0.5-0.3,0.2-0.4
	C80.8,8,81,8.7,81.2,8.9c0.5,0,0.5-0.5,1.1-0.3c0-0.1-0.2-0.1-0.3-0.2c0.5,0.1,1.1-0.5,1.5,0.3C84,8.5,83.4,8.2,84,7.8
	c-0.5,0-0.5,0.1-0.9-0.1c1.4-0.3,2.2,0.9,3.1,1c0.2,0,0.1-0.3-0.2-0.4c0.8,0.2,2.4,0.9,2.3,0c1.1,0.5,1.9-0.1,3.2,0.7
	c-0.1-0.4,0.8,0,1.2-0.2c-0.6-0.3-0.2-0.3,0.1-0.8c0,0.5,1,0.1,1.5,0.1c1.2,0.1,2.5,0.7,3.5,0.6c0.2-0.1,0-0.2,0.3-0.4
	c1.3,0.8,2.2-0.2,3.1-0.3c-0.1,0,0.2,0.5,0.9,0.2c1.2-0.5,3.3-0.1,5,0.3c0.5,0,1.2-0.5,1.6,0c-0.1-0.4,0.7,0,0.5-0.2
	c0.4-0.1,1.3,0.6,1.5,0c0.3,0.8,1.1,0.3,1.7,0.5c-0.6-0.2,0.6-0.5-0.4-0.6c1,0.1,2.7,0.6,3.7,1c0.5-0.3,1.1-0.4,1.1-0.8
	c0.3,0.1,0,0.6,0.2,0.7c0.4,0.2,0.7-0.3,0.6,0.2c0.2-0.2,0.8-0.4,0-0.4c0.5-0.3,1.3,0.2,1.6,0c0.1-0.1,0-0.2-0.2-0.3
	c1.2,0.2,2.1-0.6,4.4-0.1c0.2,0-0.2,0.2,0.1,0.3c0.6,0.2,0.3-0.4,0.9-0.2c-0.1-0.4-0.2-0.2-0.6-0.2c0.5-0.8,1.8,0.3,2.6,0.4
	c0.7-0.2,0.5-0.4,0.8-0.8c0.2,0,0.4,0,0.6,0c0.2,0.1,0.4,0.2,0.7,0.3c0.3,0.2,0.7,0.3,1,0.5c0.2,0,0.4-0.1,0.6-0.2
	c0.2-0.1,0.3-0.1,0.5-0.2c0.4,0.1,0.8,0.2,1.2,0.3c0.2,0,0.5-0.1,0.6-0.1c0.4,0.1,0.9,0.5,0.3,0c0.7,0.3,1.9,0.7,2.8,1.3
	c0.6-0.1,0.9-0.3,1.4-0.4c-0.1-0.1,0.5-0.8,0.5-0.7c0.1-0.1,0.4,0,0.4,0c0.1,0,0.1-0.1,0.2-0.1c-0.1-0.2,0.2-0.2,0,0l0.1,0.1
	c0.2,0.2,1.4-0.2,0.9-0.4l0,0c1.9,0.5,3,0.2,4.8,1.1c0.1-0.2-0.5-0.4-0.1-0.4c1,1.1,2.6-0.4,3.6,0.6c0.2,0,0.1-0.2,0.2-0.4
	c0.2,0.6,0.6,0.3,1.3,0.5c0.3,0-0.2-0.4-0.2-0.5c0.5,0,0.8,0.5,1.4,0.6c1.1-0.4,2.1-0.2,3.4-0.1c0.1-0.2,0.2-0.2,0.5-0.5
	c0.7,0.4,0.7-0.1,1.1-0.2c1.7,0.3,5.1,0.8,7.3,0.4c0.2,0.1,0.5,0.1,0.7,0.1s0.3,0,0.4,0c0.2,0,0.3,0,0.5,0c0,0-0.1-0.1-0.2-0.1
	c0.2,0,0.5,0.1,0.6,0.2c-0.2,0-0.3,0-0.5,0c0.2,0.1,0.4,0.2,0.5,0.1c0.2,0.1,0,0.1,0,0.3c2-0.2,4.2,1.3,5.8,1
	c-0.1-0.2-0.9-0.3-1-0.2c-0.1-0.1-0.1-0.2-0.3-0.3c0.3-0.3,0.8,0.1,0.5-0.5c1.2,0.7,2.1-0.3,3.2,0.4c0.3,0.1,0.8-0.3,0.5-0.5
	c0.7-0.1,1.4,0.7,2.1,1c0.3-0.1,0.2-0.5,0.8-0.3c-0.1-0.1-0.2-0.2-0.4-0.3c0.1-0.1,1.5,0.5,1.1,0.7c0.2-0.2,0.9-0.1,1,0.1
	c0.3-0.5-0.7-0.1-0.4-0.6c0.1,0.2,1.1,0.4,0.9-0.2c0.6,0.5,2.4,0.6,2.9,0.8c1,0.4,1.9,0.1,3.2-0.5c0-0.1-0.2-0.1-0.3-0.2
	c1.4-0.3,1.5,0.6,3,0.5c-0.1-0.2-0.3-0.3-0.6-0.3c-0.2-0.3,0.9,0.1,1,0.3c0.3-0.2,0.5-0.2,0.4-0.6c0.3,0.1,0.2,0.4,0.5,0.4
	c0.2,0,0-0.2,0-0.4c1.2,0.1,4.3,1,4.2-0.3c1.4,0.2,2.3-0.3,3.3-0.4c0,0,1,0.2,1.1,0.5c0.1,0.2-0.6,0.4-0.1,0.5
	c0.6,0.1,1.1-0.3,1.5-0.2C198.6,10.6,199.3,11,199.3,11z"/>
</svg>
