<?xml version="1.0" encoding="utf-8"?>
<!-- Generator: Adobe Illustrator 26.1.0, SVG Export Plug-In . SVG Version: 6.00 Build 0)  -->
<svg version="1.1" id="a" xmlns="http://www.w3.org/2000/svg" xmlns:xlink="http://www.w3.org/1999/xlink" x="0px" y="0px"
	 viewBox="0 0 390 25" style="enable-background:new 0 0 390 25;" xml:space="preserve">
<style type="text/css">
	.st0{fill:#FFFFFF;}
</style>
<g>
	<g>
		<g>
			<path class="st0" d="M-4.8,8.2c0.1,0,0.1,0,0.2,0V8.1C-4.7,8.1-4.7,8.1-4.8,8.2z"/>
			<path class="st0" d="M392.5,10.1L392.5,10.1c-0.2,0-0.3,0-0.4,0C392.2,10.1,392.3,10.1,392.5,10.1z"/>
			<path class="st0" d="M287.4,8.8c0.1,0,0.1,0,0.2,0C287.6,8.8,287.5,8.8,287.4,8.8z"/>
			<path class="st0" d="M55.1,11.2c0,0-0.1-0.1-0.2-0.2C55,11.1,55,11.2,55.1,11.2z"/>
			<path class="st0" d="M138,8.9C138.2,8.7,137.9,8.7,138,8.9L138,8.9z"/>
			<path class="st0" d="M32.1,12.4L32.1,12.4"/>
			<path class="st0" d="M355.9,6.1c-0.6-1.2-3.2-0.9-4.9-1.6c-0.3,0.8-1.2,0.3-1.9,0.9c0,0.3,0.4-0.2,0.3,0.2
				c0.1,0.2,0.1,0.4,0.4,0.3c0.4,0-0.1-0.4-0.3-0.4c0.2,0,1,0.6,1.1,1.1c0.2-0.3,0.7-0.2,0.8-0.6c0.2,0.2-0.2,0.6,0.5,0.7
				c0.1-0.4,0.1,0.1,0.3-0.4c0.1,0.4,0.6,0,0.3,0.4c0.3,0.1,0.5,0,0.5-0.2c0.3,0.2,0.5,0.4,0.7,0.6c0.6-0.1,0.8-0.4,1.5-0.1
				c0.2-0.6-0.3,0.1-0.3-0.3c0.6-0.5,1.4-0.2,1.8-0.7c-0.2-0.1-0.4-0.3-0.6-0.5C356.1,5.8,356.1,6,355.9,6.1z"/>
			<path class="st0" d="M49.4,9.9c0,0-0.1-0.1-0.2-0.2C49.2,9.7,49.3,9.8,49.4,9.9z"/>
			<path class="st0" d="M196.9,10.1c-0.2,0-0.3,0-0.5,0c0.2,0.1,0.4,0.2,0.6,0.3C197.3,10.3,197,10.4,196.9,10.1z"/>
			<path class="st0" d="M195.9,9.7c-0.1,0.1-0.1,0.1-0.3,0.2c0.2,0,0.4,0.1,0.6,0.2C196.1,9.9,196,9.8,195.9,9.7z"/>
			<path class="st0" d="M-1,8.8c0-0.2,0.2,0,0.2,0.2c-0.8,0.1-2.7-0.4-3.6-1c-0.1,0.2,0.2,0.3,0.2,0.4c-0.3,0.1-0.4-0.2-0.5-0.3v0.1
				c0.2,0.1,0.2,0.2,0.2,0.4c-0.1,0-0.1-0.1-0.2-0.1V9c1.1,0.2,1.7,0.9,3,1.2c0-0.2,0.1-0.4-0.1-0.4c0.2-0.3,0.3,0.3,0.4,0.4
				c0.1-0.1,0.5,0,0.5-0.3c0.2,0.2,0.2,0.4,0.7,0.3c-0.2-0.6,0.3,0.1,0.5-0.6C0.5,10,1,9.8,1.3,9.9c0.1-0.3-0.1-0.4-0.4-0.4
				c0.1,0,0.2,0,0.2,0C1,9.4,1,9.3,1,9.3C0.5,9.5-1,8.2-1,8.8z"/>
			<path class="st0" d="M192.5,9.6c-1.2-0.2-1.8-1-2.7-1.1c0.1,0,0.3-0.1,0.3-0.2c-1.1,0-2,0.5-3.4,0.4c0.2,1.3-2.9,0.4-4.2,0.3
				c-0.1,0.2,0.2,0.3,0,0.4C182.2,9.3,182.2,9,182,9c0.2,0.4-0.1,0.4-0.4,0.6c-0.1-0.2-1.2-0.7-1-0.3c0.3,0,0.5,0.1,0.6,0.3
				c-1.5,0.1-1.7-0.8-3-0.5c0.1,0,0.3,0,0.3,0.2c-1.2,0.6-2.1,0.9-3.2,0.5c-0.5-0.2-2.2-0.3-2.9-0.8c0.2,0.6-0.8,0.3-0.9,0.2
				c-0.3,0.5,0.7,0.1,0.4,0.6c-0.2-0.2-0.8-0.3-1-0.1c0.4-0.3-1-0.8-1.1-0.7c0.2,0.1,0.3,0.2,0.4,0.3c-0.5-0.2-0.5,0.2-0.8,0.3
				c-0.7-0.3-1.4-1.1-2.1-1c0.4,0.2-0.2,0.6-0.5,0.5c-1.1-0.7-2,0.3-3.2-0.4c0.3,0.6-0.2,0.2-0.5,0.5c0.2,0,0.2,0.2,0.3,0.3
				c0.1-0.1,0.9,0,1,0.2c-0.2,0-0.3,0-0.5,0c0.2,0.1,0.4,0.2,0.5,0.1c0.2,0.1,0,0.1,0,0.3c2-0.2,4.2,1.3,5.8,1
				c-0.1-0.2-0.9-0.3-1-0.2c-0.1-0.1-0.1-0.2-0.3-0.3c0.3-0.3,0.8,0.1,0.5-0.5c1.2,0.7,2.1-0.3,3.2,0.4c0.3,0.1,0.8-0.3,0.5-0.5
				c0.7-0.1,1.4,0.7,2.1,1c0.3-0.1,0.2-0.5,0.8-0.3c-0.1-0.1-0.2-0.2-0.4-0.3c0.1-0.1,1.5,0.5,1.1,0.7c0.2-0.2,0.9-0.1,1,0.1
				c0.3-0.5-0.7-0.1-0.4-0.6c0.1,0.2,1.1,0.4,0.9-0.2c0.6,0.5,2.4,0.6,2.9,0.8c1,0.4,1.9,0.1,3.2-0.5c0-0.1-0.2-0.1-0.3-0.2
				c1.4-0.3,1.5,0.6,3,0.5c-0.1-0.2-0.3-0.3-0.6-0.3c-0.2-0.3,0.9,0.1,1,0.3c0.3-0.2,0.5-0.2,0.4-0.6c0.3,0.1,0.2,0.4,0.5,0.4
				c0.2,0,0-0.2,0-0.4c1.2,0.1,4.3,1,4.2-0.3c1.4,0.2,2.3-0.3,3.3-0.4C195,9.1,193.5,9.8,192.5,9.6z"/>
			<path class="st0" d="M158.5,8.2c0,0.2-0.5-0.1-0.7-0.2c-2,1-6.5,0.3-8.4-0.1C149,8,149,8.5,148.3,8.1c-0.3,0.3-0.4,0.3-0.5,0.5
				c-1.3-0.1-2.4-0.3-3.4,0.1C143.8,8.5,143.5,8,143,8c0.1,0.1,0.6,0.5,0.2,0.5c-0.6-0.2-1,0.1-1.3-0.5c0,0.2,0,0.4-0.2,0.4
				c-1-0.9-2.7,0.6-3.6-0.6c-0.4,0,0.2,0.2,0.1,0.4c-1.9-0.8-3.1-0.6-4.9-1.1c0.5,0.3-0.7,0.6-0.9,0.4c-0.1-0.1-0.1-0.1-0.1-0.1
				s-0.1,0.1-0.2,0.1c0,0-0.3-0.1-0.4,0c0,0-0.9,0.9-0.4,0.7c-0.4,0-0.6,0.1-0.9,0.2c0.5,0.1,0.9,0.2,1.4,0.3c0.2,0,0.5-0.1,0.6-0.1
				c0.4,0.1,0.9,0.5,0.3,0c0.7,0.3,1.9,0.7,2.8,1.3c0.6-0.1,0.9-0.4,1.5-0.4c-0.5,0.2,0.4-0.8,0.4-0.7c0.1-0.1,0.4,0,0.4,0
				c0.1,0,0.1-0.1,0.2-0.1c-0.1-0.2,0.2-0.2,0,0l0.1,0.1c0.2,0.2,1.5-0.2,0.9-0.4c1.9,0.5,3,0.2,4.9,1.1c0.1-0.2-0.5-0.4-0.1-0.4
				c1,1.1,2.6-0.4,3.6,0.6c0.2,0,0.1-0.2,0.2-0.4c0.2,0.6,0.6,0.3,1.3,0.5c0.3,0-0.2-0.4-0.2-0.5c0.5,0,0.8,0.5,1.4,0.6
				c1.1-0.4,2.1-0.2,3.4-0.1c0.1-0.2,0.2-0.2,0.5-0.5c0.7,0.4,0.7-0.1,1.1-0.2c1.9,0.3,6.2,1,8.2,0.1C161.8,9,160.1,8.1,158.5,8.2
				C158.5,8.3,158.7,8.3,158.5,8.2z"/>
			<path class="st0" d="M360.4,6.3c-0.2,0.1-0.4,0.1-0.6,0.1c0.3,0,0.5,0.1,0.7,0.2C360.5,6.5,360.5,6.3,360.4,6.3z"/>
			<path class="st0" d="M126.6,7.4c-0.1,0-0.4,0.1-0.6,0.1c-1.7-0.4-3.1-0.8-4.4-0.8c-0.4,0.4-0.2,0.7-0.8,0.8
				c-0.9-0.1-2.1-1.1-2.6-0.4c0.4,0,0.5-0.2,0.6,0.2c-0.6-0.2-0.3,0.4-0.9,0.2c-0.3,0,0.1-0.2-0.1-0.3c-2.3-0.4-3.1,0.5-4.5,0.1
				c0.2,0,0.3,0.1,0.3,0.3c-0.4,0.2-1.2-0.4-1.6,0c0.8,0,0.1,0.2,0,0.4c0.1-0.5-0.2,0-0.6-0.2c-0.2-0.1,0.1-0.6-0.2-0.7
				c-0.1,0.4-0.7,0.5-1.1,0.8c-1.1-0.4-2.7-0.9-3.7-1c1,0.1-0.3,0.3,0.4,0.6c-0.6-0.2-1.4,0.3-1.7-0.5c-0.2,0.7-1-0.1-1.5,0
				c0.2,0.3-0.6-0.2-0.5,0.2c-0.5-0.5-1.1,0-1.6,0c-1.7-0.4-3.8-0.8-5-0.3c-0.6,0.3-1-0.2-0.9-0.2c-0.9,0.1-1.8,1.1-3.1,0.3
				C92,7.3,92.2,7.4,92,7.5c-1,0.2-2.3-0.4-3.5-0.6c-0.5,0-1.5,0.4-1.4-0.1c-0.3,0.4-0.7,0.5-0.1,0.8c-0.4,0.2-1.3-0.2-1.2,0.2
				c-1.3-0.7-2.1-0.2-3.2-0.7c0.2,0.9-1.4,0.2-2.3,0c0.2,0.1,0.4,0.4,0.2,0.4c-0.9-0.1-1.8-1.3-3.1-1c0.4,0.2,0.4,0.1,0.9,0.1
				c-0.7,0.3-0.1,0.7-0.5,0.9c-0.3-0.8-1-0.2-1.5-0.3c0.1,0,0.3,0,0.3,0.2C76,7.2,76,7.7,75.5,7.7c-0.2-0.1-0.4-0.9-0.7-0.6
				c0.4,0,0,0.4-0.2,0.4c-0.4-0.3-0.9,0.2-1.3-0.1c0,0.2-0.1,0.4-0.3,0.5c0-0.2-0.6-0.6-0.7-0.3c0.6,0.3-0.5,0.2-0.8,0.2
				c0.4-0.3-0.3-0.2-0.2-0.5c-0.5,0-1,0-1.3,0.1c0.3,0,0.4,0.1,0.4,0.3c-0.3,0-0.6-0.7-0.9-0.3c0,0.2,0.4,0.4,0.7,0.7
				c-0.7,0.5-2.2-0.3-3,0.5C66.6,8.3,66.4,8,65.8,8c-0.1,0.2-0.1-0.3-0.4-0.2c-0.3-0.6-2.1,1.4-2.9,0.7c-0.2,0.2-0.1-0.1-0.5-0.2
				c0.2-0.2-0.7,0.3-1.1-0.2c-0.4-0.1,0.3-0.3-0.2-0.3c-0.2-0.4-0.8,0.5-1.1,0.5c0.1,0,0.2-0.5,0.2-0.5C59,7.9,57.4,8.6,58,9.2
				c-0.9,0.4-3,1-3.3,0.1c-0.5,0.2,0.3,0.5-0.1,0.5c-0.5,0-0.3-0.3-0.7-0.6c-0.1,0.5-0.8,0.3-1.4,0.3C52.3,9.9,53,9.6,52.7,10
				c-0.2-0.2-0.7-0.5-1-0.2c-0.1,0.3,0.2,0.3,0.2,0.4c-1,0.2-2.2-0.1-2.7-0.4c0.3,0.4-0.4,0.7-0.7,0.2c-0.2,0.9-1.3-0.3-1.6,0.1
				c0.5,0.5-1.2,0-1.5,0.1c-0.1,0.2,0.1,0.7-0.2,0.6c-0.8-0.2-0.8-0.5-2-0.3c0.2,0,0.4,0,0.4,0.2c-1.1,0-0.2-0.4-1.3-0.2
				c-0.2-0.3,0.3-0.5-0.2-0.5c-0.3,0,0,0.2,0,0.4c-0.7-0.4-1.6,0.1-2-0.4c-0.6,0.5-1.5-0.2-2.2-0.1c-0.1,0.7-2.1-0.3-2.8-0.1
				c-0.1,0.3,0.2,0.3-0.1,0.5c-0.6-0.5-0.8-0.1-1.3-0.2c0.1,0.5-0.1,0.4,0.2,0.7c-0.5-0.3-0.9,0-1.3,0.1c0.4-0.5-0.7,0.1-0.8-0.5
				c-0.1,0.2,0.4,0.6-0.2,0.5c-0.4,0,0.4-0.6-0.1-0.7c-0.2,0.1-0.1,0.5-0.4,0.5c-0.1-0.7-0.6,0.1-0.9,0.1s-0.1-0.4-0.4-0.4
				c0.1,0.6-0.5,0.3-0.6,0.1c-0.2,0.3,0.5,0.6,0.1,0.7c-0.7-0.3-1.5-0.8-2.3-0.4c-0.4-0.1-0.4,0.4-0.7,0.2l0,0
				c0.1-0.1,0.2-0.4,0-0.4c-0.6,0-0.8,0.2-0.8-0.3c-0.2,0.9-1.1-0.2-1.7,0.2c0.1,0.1,0.3,0.4,0,0.3c-0.3,0.4-0.6-0.8-1.1-0.4
				c0.1-0.7-0.4,1-0.5,0.3c-0.6,0.6-1.3,0.3-1.9-0.3c0,0.2,0,0.5-0.2,0.5c-0.5-0.4,0-0.5-0.8-1c-0.2,0.4,0.4,0.7,0.1,0.8
				c-0.6,0-1.4-1-1.4-0.6c0.2,0.1,0.7,0.5,0.4,0.6c-0.9,0-0.7-0.6-1.4-0.4c0.2,0.1-0.4,0.2-0.3,0.4c-0.5-0.3-2.1,0.2-3-0.6
				c-0.3,0.3-0.6,0.1-1.1,0.4c-0.1-0.2,0.2-0.7-0.1-0.7c0,0.2-0.1,0.3-0.3,0.4C11.3,9.7,10.3,9,9,9.4c0.3,0.1,0.6,0.1,0.7,0.3
				C9.1,9.5,9.2,10,8.8,9.9C9,9.7,6.9,9.2,7,9.6C6.6,9,4.9,9.7,4.9,9.7S4.7,9.4,4.5,9.4c-0.7,0-1.8,0.2-2.6,0.2
				c1,0.4,2.4,0.8,3.1,0.7c0-0.2-0.2-0.3-0.3-0.2c0-0.6,1.5,0.7,2,0.4c0.1,0.8,2.4,0.2,3.5,0.2c0.2,0,0.4,0.3,0.4,0.3
				s1.6-0.8,2.1-0.1c-0.1-0.4,2,0,1.7,0.3c0.5,0.1,0.4-0.4,0.9-0.2c-0.1-0.2-0.5-0.2-0.7-0.3c1.4-0.4,2.3,0.3,3.2,0.8
				c0.2,0,0.3-0.1,0.3-0.4c0.3,0,0,0.5,0.1,0.7c0.4-0.3,0.8-0.1,1.1-0.4c1,0.8,2.6,0.3,3,0.6c-0.1-0.2,0.5-0.2,0.3-0.4
				c0.7-0.3,0.6,0.4,1.4,0.4c0.3-0.1-0.2-0.5-0.4-0.6c0-0.3,0.8,0.6,1.4,0.6c0.4-0.1-0.3-0.4-0.1-0.8c0.8,0.5,0.3,0.5,0.8,1
				c0.2,0,0.2-0.3,0.2-0.5c0.6,0.6,1.3,0.9,1.9,0.3c0.1,0.8,0.7-1,0.5-0.3c0.5-0.4,0.8,0.8,1.1,0.4c0.3,0.1,0.1-0.2,0-0.3
				c0.6-0.4,1.5,0.7,1.7-0.2c-0.1,0.5,0.2,0.3,0.8,0.3c0.3,0,0.1,0.3,0,0.4l0,0c0.3,0.1,0.3-0.3,0.7-0.2c0.7-0.4,1.5,0.1,2.3,0.4
				c0.4-0.1-0.2-0.4-0.1-0.7c0.1,0.2,0.7,0.5,0.6-0.1c0.3,0,0.1,0.4,0.4,0.4c0.3,0,0.8-0.8,0.9-0.1c0.3,0,0.1-0.4,0.4-0.5
				c0.5,0.1-0.3,0.7,0.1,0.7c0.6,0.1,0.1-0.3,0.2-0.5c0.1,0.5,1.2-0.1,0.8,0.5c0.5-0.1,0.8-0.5,1.3-0.1c-0.3-0.3-0.1-0.2-0.2-0.7
				c0.5,0.2,0.7-0.2,1.3,0.2c0.3-0.2,0-0.2,0.1-0.5c0.7-0.2,2.7,0.8,2.8,0.1c0.7-0.1,1.6,0.5,2.2,0.1c0.5,0.6,1.3,0,2,0.4
				c0.1-0.2-0.2-0.4,0-0.4c0.5,0.1,0,0.2,0.2,0.5c1.1-0.1,0.2,0.2,1.3,0.2c0-0.2-0.3-0.1-0.4-0.2c1.2-0.2,1.3,0.1,2,0.3
				c0.3,0,0.1-0.5,0.2-0.6c0.3-0.2,2,0.4,1.5-0.1c0.4-0.4,1.5,0.8,1.6-0.1c0.3,0.5,1,0.2,0.7-0.2c-0.1-0.1-0.2-0.1-0.2-0.2
				c0.1,0.1,0.1,0.1,0.2,0.2c0.5,0.3,1.7,0.6,2.7,0.4c-0.1-0.1-0.3-0.2-0.2-0.4c0.3-0.3,0.8,0,1,0.2c0.2-0.4-0.5-0.1-0.2-0.5
				c0.6,0,1.3,0.2,1.4-0.3c0.4,0.3,0.2,0.6,0.7,0.6c0.4,0-0.5-0.3,0.1-0.5c0.3,0.9,2.3,0.3,3.3-0.1c-0.6-0.7,1-1.4,1.8-1.4
				c0,0.1-0.1,0.6-0.2,0.5c0.4,0.1,0.9-0.8,1.1-0.5c0.5,0-0.2,0.2,0.2,0.3c0.3,0.4,1.3,0,1.1,0.2C68,9.7,68,10,68.1,9.8
				c0.9,0.7,2.7-1.3,2.9-0.7c0.2-0.1,0.3,0.4,0.4,0.2c0.6,0,0.8,0.3,1.3,0.4c0.8-0.8,2.3,0,3-0.5C75.4,8.9,75,8.7,75,8.5
				c0.3-0.3,0.5,0.3,0.9,0.3c0-0.2-0.2-0.3-0.4-0.3c0.5-0.1,1-0.1,1.5-0.1c0,0.3,0.7,0.2,0.2,0.5c0.3,0,1.4,0.1,0.8-0.2
				c0.1-0.3,0.7,0.1,0.7,0.3C78.9,9,79,8.8,79,8.6c0.5,0.3,0.9-0.2,1.3,0.1c0.2,0.1,0.5-0.3,0.2-0.4C80.8,8,81,8.7,81.2,8.9
				c0.5,0,0.5-0.5,1.1-0.3c0-0.1-0.2-0.1-0.3-0.2c0.5,0.1,1.1-0.5,1.5,0.3C84,8.5,83.4,8.2,84,7.8c-0.5,0-0.5,0.1-0.9-0.1
				c1.4-0.3,2.2,0.9,3.1,1c0.2,0,0.1-0.3-0.2-0.4c0.8,0.2,2.4,0.9,2.3,0c1.1,0.5,1.9-0.1,3.2,0.7c-0.1-0.4,0.8,0,1.2-0.2
				c-0.6-0.3-0.2-0.3,0.1-0.8c0,0.5,1,0.1,1.5,0.1c1.2,0.1,2.5,0.7,3.5,0.6c0.2-0.1,0-0.2,0.3-0.4c1.3,0.8,2.2-0.2,3.1-0.3
				c-0.1,0,0.2,0.5,0.9,0.2c1.2-0.5,3.3-0.1,5,0.3c0.5,0,1.2-0.5,1.6,0c-0.1-0.4,0.7,0,0.5-0.2c0.4-0.1,1.3,0.6,1.5,0
				c0.3,0.8,1.1,0.3,1.7,0.5c-0.6-0.2,0.6-0.5-0.4-0.6c1,0.1,2.7,0.6,3.7,1c0.5-0.3,1.1-0.4,1.1-0.8c0.3,0.1,0,0.6,0.2,0.7
				c0.4,0.2,0.7-0.3,0.6,0.2c0.2-0.2,0.8-0.4,0-0.4c0.5-0.3,1.3,0.2,1.6,0c0.1-0.2-0.1-0.3-0.3-0.3c1.3,0.3,2.2-0.6,4.5-0.1
				c0.2,0-0.2,0.2,0.1,0.3c0.6,0.2,0.3-0.4,0.9-0.2c-0.1-0.4-0.2-0.2-0.6-0.2c0.5-0.8,1.8,0.3,2.6,0.4c0.7-0.2,0.5-0.4,0.8-0.8
				c0.4,0,0.9,0,1.3,0.1C127.8,7.8,127.1,7.6,126.6,7.4C127.5,8,127,7.5,126.6,7.4z M79.6,7.2c-0.4,0.2-0.2,0.1-0.2,0.6
				c-0.3-0.1-0.3-0.3-0.7-0.3c0.3-0.4,0-0.1-0.4-0.2c0-0.3-0.4-0.3-0.2-0.7c0.2,0,1,0.6,0.9,0.1C79.3,7.2,78.9,7,79.6,7.2L79.6,7.2z
				 M115.5,7.5C115.6,7.5,115.6,7.6,115.5,7.5c0.3,0.1,0.3-0.3,0.7-0.1C116.1,7.7,115.5,8.2,115.5,7.5z"/>
			<path class="st0" d="M281.7,7.4c0.1,0,0.1,0,0.2,0C281.8,7.4,281.8,7.4,281.7,7.4z"/>
			<path class="st0" d="M132.3,7.5C132.5,7.3,132.2,7.3,132.3,7.5L132.3,7.5z"/>
			<path class="st0" d="M358.7,6.3c0.3,0,0.5,0.1,0.7,0.1c-0.3-0.1-0.5-0.3-0.7-0.3C358.7,6.1,358.7,6.2,358.7,6.3z"/>
			<path class="st0" d="M348.4,5.7L348.4,5.7L348.4,5.7z"/>
			<path class="st0" d="M385.1,8.3c0.2,0,0.2-0.1,0.3-0.1c-0.1,0-0.2-0.1-0.2-0.1C385.2,8.1,385.1,8.2,385.1,8.3z"/>
			<path class="st0" d="M349,5.5c0,0.1,0,0.3,0,0.4c0.1-0.1,0.3-0.3,0.3-0.1c0.2,0,0.1-0.1,0-0.3C349.2,5.6,349.1,5.5,349,5.5z"/>
			<path class="st0" d="M346.8,5.4c0.3-0.4-0.1,0-0.3-0.4c-0.2,0.4-0.2,0-0.3,0.4c-0.7-0.1-0.3-0.5-0.5-0.7
				c-0.1,0.4-0.6,0.3-0.8,0.6c-0.1-0.5-0.8-1.1-1.1-1.1c0.1,0,0.6,0.4,0.3,0.4c-0.5,0.1-0.3-0.4-0.5-0.4c-0.1,0.2,0.2,0.4,0,0.4
				c0-0.2-0.2,0-0.3,0.1c0-0.2,0.1-0.5-0.1-0.5c-0.2,0.4-1.3-0.5-1-0.1c0.1,0.2,0.6,0.1,0.6,0.3c-0.7-0.3-0.4,0.4-0.9,0.3
				c0-0.2,0.3-0.3,0-0.4c-0.2,0.4-0.3,0.1-0.4,0c-0.5,1.1-1,0.4-1.8,1.2c-0.1-0.3,0.7-0.6,0.1-0.6c-0.1,0.3-0.3,0.6-0.5,0.7
				c-0.9-0.2-1.2-0.2-1.9,0.1c0-0.2-0.2-0.1-0.3-0.3c0.1-0.2,0.2,0.1,0.3-0.1c-0.2-0.2-0.8-0.1-0.9,0.2c0.1,0.1,0.5,0.1,0.4,0.4
				c-1.2-0.3-2,1.1-3.9,0.5c0-0.2,0.2-1.1-0.1-0.7c-0.1,0.3-0.1,0.6,0.1,0.8c-0.7-0.1-0.9,0.2-0.9,0.3c-0.2-0.1-0.3-0.2-0.4-0.3
				c0.2,0,0.4-0.2,0.2-0.2c0,0.2-0.4,0.4-0.3,0c-0.8,0.9-2.9-0.4-2.4,0.3c-1.1-0.4-2.3,0-3.4-0.4c-2.8,1.4-6.2-1.7-8.2-0.4
				c0.2,0,0.4,0.1,0.1,0.1c-1.3-0.4-1.7,0.5-2.5,0.2c0.3,0.1-0.2,0.2,0.1,0.4c-0.4-0.3-0.7,0.2-0.9,0.4c0.1-0.3-0.2-0.4-0.4-0.6
				c-1.7,0.6-3.4,0.2-5,0.1c0.4,0,0.5,0.3,0.7,0.4c-0.9,0-2.1,0.2-2.5-0.6c-0.2,0.1-0.1,0.5-0.4,0.5c0.1-0.3,0-0.5-0.1-0.7
				c1.5,0.2,0-0.4-0.4,0c0.3,0,0.5,0.1,0.4,0.4c-1,0.1-1.7-0.4-2.4,0.3c-1.4-0.7-2.7-0.3-4.2-1c0,0.1,0,0.4-0.2,0.4
				c-0.2-0.5-1.2,0.2-1.4-0.6c-0.5,0.9-1.2,0.6-1.5,1.3c-0.3-0.1-1.4,0.1-2.1,0.6c-1.2-0.4-2.7-0.8-3.8-0.3
				c-1.3-0.7-2.7-0.4-3.8-0.8c-0.1,0.8-1.1-0.1-1.2,0.4c0.2,0,0.2,0.2,0.3,0.3c-0.3-0.1-0.4-0.4-0.7-0.2c-0.1,0.4,0.3,0.4,0.2,0.8
				c-1.2,0-2.5,0.4-3.8,0.1c0.2,0.1,0.2,0.4,0,0.4c-1.4-0.6-1.9,0-3.8-0.3c0,0.1,0,0.4-0.2,0.4c-1.4-0.1-2.7-0.6-3.6,0.3
				c0-0.1,0-0.3,0-0.4c-0.4,0.4-0.6,0.2-0.9,0.2c-0.3,0.7-1.9-0.2-3.2-0.3c-0.2,0.3,0.3,0.5-0.1,0.5c-0.5-0.2-0.6-0.2-1-0.3
				c-0.3,0.4-0.8,0.4-1.1,0.8c-0.4,0.1-0.3-0.3-0.6-0.3c0.1,0.5-1.2,0.2-1.3-0.2c0,0.2,0,0.4,0.1,0.5c-1.5-0.2-2.5-0.2-4.1-0.7
				c0.2,0,0.4,0,0.3-0.2c-0.7,0.3-3,0-2.9-0.2c-0.7,0.3-2.4-0.3-2.5,0.3c-1.7-0.5-4.9-0.6-5.7,0.3c-0.8-0.7-2.6-0.2-3.1-1.2
				c-1.4,0.7-3.3,0.9-4.7,1.2c0-0.2,0.1-0.3,0.2-0.4c-1.1,1.1-3.5,1.3-5.2,0.5c0.1,0.4,0.4,0.5-0.1,0.8c-3.1-0.7-4.8,0.3-7.3,0.6
				c-1.2-0.7-4.6,0.1-5.5-0.7c-0.6,0.9-2.7,0.7-3.8,0.7c0.1,0,0.2,0.2,0,0.3c-1.2-0.5-2.3,0.2-3.1,0.1c-1.9-0.6-4.3-0.7-6.1,0.1
				c-0.7-0.8-2.4-0.1-2.7,0.3c-1-0.3-1.1,0-1.7-0.5c-0.1,0.5-0.9,0.6-0.8,0.8c-0.8-0.6-1,0.2-1.1-0.4c-0.3,0.2,0.2,0.4-0.3,0.5
				c-0.3-0.3-1-0.9-1.2-0.9c1.3,0.6-1,0.9-1.1,0.3c-0.2,0.8-1.4,0-1.6-0.3c-0.4,0.8-2.4-0.2-2.9,0.7c-0.6-0.3-1.5,0-2,0
				c0.4,0.2,0.7,0.4,1.2,0.5c1.2,0.2,3.2-0.9,3.8,0.6c0.1-0.1,0.3-0.1,0.6-0.1c0.1,0.3,0.4,0.1,0.1,0.4c0.5,0.1,1.4-0.3,2.1,0
				c0.5-0.9,2.5,0.1,2.9-0.7c0.2,0.3,1.4,1.1,1.6,0.3c0.1,0.6,2.4,0.3,1.1-0.3c0.2-0.1,0.9,0.6,1.2,0.9c0.5-0.1,0-0.3,0.3-0.5
				c0.2,0.6,0.4-0.2,1.1,0.4c0-0.3,0.7-0.3,0.8-0.8c0.7,0.6,0.8,0.2,1.7,0.5c0.2-0.4,2-1.1,2.7-0.3c1.8-0.9,4.2-0.7,6.1-0.1
				c0.9,0.1,1.9-0.7,3.1-0.1c0.2,0,0.2-0.2,0-0.3c1.1,0,3.2,0.2,3.8-0.7c0.9,0.8,4.4,0,5.5,0.7c2.5-0.3,4.3-1.2,7.3-0.6
				c0.4-0.3,0.2-0.4,0.1-0.8c1.7,0.8,4.1,0.6,5.2-0.5c-0.1,0.1-0.2,0.2-0.2,0.4c1.4-0.2,3.3-0.5,4.7-1.2c0.5,1,2.3,0.5,3.1,1.2
				c0.8-0.9,4-0.8,5.7-0.3c0.1-0.6,1.8,0,2.5-0.3c-0.1,0.2,2.3,0.6,2.9,0.2c0,0.2-0.1,0.2-0.3,0.2c1.6,0.6,2.5,0.6,4.1,0.7
				c-0.1-0.1-0.1-0.3-0.1-0.5c0.1,0.5,1.4,0.8,1.3,0.2c0.3,0,0.1,0.4,0.6,0.3c0.3-0.4,0.9-0.4,1.1-0.8c0.4,0.1,0.5,0.1,1,0.3
				c0.4,0-0.2-0.2,0.1-0.5c1.4,0.1,2.9,0.9,3.2,0.3c0.3,0,0.5,0.2,0.9-0.2c0,0.1,0,0.3,0,0.4c0.9-1,2.2-0.4,3.6-0.3
				c0.2,0,0.1-0.2,0.2-0.4c1.9,0.3,2.4-0.3,3.8,0.3c0.2,0,0.1-0.2,0-0.4c-0.1,0-0.1,0-0.2,0c0.1,0,0.2,0,0.2,0
				c1.3,0.3,2.5-0.1,3.8-0.1c0.1-0.4-0.3-0.4-0.2-0.8c0.3-0.2,0.4,0.1,0.7,0.2c-0.1-0.1-0.1-0.2-0.3-0.3c0.1-0.5,1.1,0.3,1.2-0.4
				c1.1,0.4,2.4,0.2,3.8,0.8c1.1-0.5,2.7-0.1,3.8,0.3c0.7-0.5,1.8-0.7,2.1-0.6c0.3-0.7,1-0.4,1.5-1.3c0.2,0.9,1.2,0.1,1.4,0.6
				c0.2,0,0.1-0.2,0.2-0.4c1.5,0.7,2.8,0.3,4.2,1c0.8-0.7,1.4-0.2,2.4-0.3c0.1-0.3-0.1-0.4-0.4-0.4c0.4-0.4,1.9,0.3,0.4,0
				c0.1,0.2,0.2,0.4,0.1,0.7c0.3,0,0.1-0.4,0.4-0.5c0.4,0.8,1.6,0.6,2.5,0.6c-0.2-0.2-0.3-0.4-0.7-0.4c1.6,0.1,3.3,0.5,5-0.1
				c0.2,0.1,0.4,0.2,0.4,0.6c0.2-0.3,0.6-0.8,0.9-0.4c-0.3-0.2,0.2-0.3-0.1-0.4c0.9,0.3,1.2-0.6,2.5-0.2c0.2,0,0-0.1-0.1-0.1
				c2-1.2,5.5,1.8,8.2,0.4c1.1,0.4,2.3,0,3.4,0.4c-0.5-0.7,1.6,0.5,2.4-0.3c-0.2,0.4,0.3,0.2,0.3,0c0.2,0.1,0,0.2-0.2,0.2
				c0.1,0.1,0.2,0.2,0.4,0.3c0.1-0.2,0.2-0.5,0.9-0.3c-0.2-0.2-0.1-0.5-0.1-0.8c0.2-0.4,0.1,0.5,0.1,0.7c1.9,0.7,2.7-0.7,3.9-0.5
				c0.1-0.3-0.3-0.3-0.4-0.4c0.1-0.3,0.7-0.4,0.9-0.2c-0.1,0.2-0.2-0.1-0.3,0.1c0,0.1,0.3,0.1,0.3,0.3c0.8-0.3,1-0.3,1.9-0.1
				c0.3-0.2,0.4-0.4,0.5-0.7c0.7,0-0.2,0.3-0.1,0.6c0.7-0.8,1.2-0.1,1.8-1.2c0.2,0.2,0.2,0.4,0.4,0c0.2,0.1-0.1,0.2,0,0.4
				c0.2,0,0.3-0.1,0.4-0.3c-0.2-0.2-0.4-0.4-0.6-0.5C347.3,5.4,347.1,5.5,346.8,5.4z"/>
			<path class="st0" d="M381.3,7.1c0.1-0.5-0.5,0.1-0.1-0.4c-0.6,0.3-1-0.4-0.6,0.3c-0.7,0.1-0.5-0.5-1-0.6c0,0.3,0.2,0.4-0.2,0.5
				c0-0.2,0.1-0.4-0.1-0.4c0,0.2,0,0.5-0.2,0.5c-0.3-0.2-0.5-0.4-0.7-0.6c0,0.1,0,0.4-0.2,0.4c0-0.2,0.1-0.4-0.1-0.4
				c-0.1,0.6-0.4-0.2-0.7-0.2c-0.1,0.2,0.2,0.4,0,0.4c-0.3,0.1-0.5-0.7-0.7-0.5c0.4,0.3-1.3,0.5-1.3-0.2c-0.1,0.5-0.5,0.4-0.1,0.9
				c-0.2-0.3-0.4,0.1-0.7-0.2C374.2,7,375,6.7,374.9,7c-0.2,0-0.3,0.2-0.5,0.2c-0.2-0.3-0.1-0.6-0.2-0.7c-0.5,0.2,0.4,0.6-0.1,0.8
				c-0.4-0.1,0-0.7-0.5-0.7c0.2,0.7-0.6,0.3-0.7,0.1c-0.1,0.2-0.3,0.3-0.5,0.3c0-0.2,0.1-0.5-0.1-0.5c-0.1,0.2-0.3,0.3-0.6,0.2
				c0-0.2,0.1-0.4-0.1-0.4c-0.1,0.1-0.7,0-0.9,0.3c-0.2-0.2-0.7-1.3-0.6-1c0.3,0.4,0.2,0.9,0,1.4c-0.7-0.4-1.1,0.1-1.8,0
				c-0.5-0.8-1.8-1.3-2.8-1.3c-0.2,0.4-0.6,0.7-0.8,1c-0.1-0.4-0.5-1.1-0.8-1c0.6,0.5-0.8,1,0.3,1.1c-0.1,0.1-0.2,0.3-0.3,0.4
				c-0.4-0.4-0.5-0.5-0.8-0.7c-0.6,0.6-1.9,0-2.4,0.1c0.5,0.2,0.9,0.4,1.1,0.8c0.2,0,0.2-0.3,0.2-0.5c0.3,0.3,0.7,0.6,1.2,0.8
				c-0.8-0.5,1.1-0.1,1.2,0.2c0.2,0,0.2-0.3,0.2-0.5c0.3,0.1,0.7,0.6,1.6,0.3c0.2,0,0.1,0.2,0.1,0.4c0.3-0.4,1.9,0.5,2.5-0.2
				c0.3,0.2,0.4,0.4,0.8,0.7c0.1-0.1,0.2-0.2,0.3-0.4c-1.1-0.1,0.3-0.6-0.3-1.1c0.3-0.2,0.7,0.6,0.8,1c0.3-0.3,0.7-0.5,0.8-1
				c1,0,2.3,0.5,2.8,1.3c0.7,0.1,1-0.4,1.8,0c0.2-0.5,0.3-1,0-1.4c-0.1-0.3,0.4,0.7,0.6,1c0.2-0.4,0.8-0.2,0.9-0.3
				c0.2,0,0.1,0.2,0.1,0.4c0.3,0.1,0.6,0,0.6-0.2c0.2,0.1,0.1,0.3,0.1,0.5c0.2-0.1,0.4-0.2,0.5-0.3c0.2,0.3,0.9,0.7,0.7-0.1
				c0.5,0,0.1,0.6,0.5,0.7c0.5-0.2-0.5-0.5,0.1-0.8c0.1,0.1,0,0.4,0.2,0.7c0.2,0,0.3-0.2,0.5-0.2c0.1-0.3-0.7,0-0.4-0.4
				c0.3,0.3,0.5-0.1,0.7,0.2c-0.4-0.5,0-0.4,0.1-0.9c0,0.7,1.7,0.6,1.3,0.2c0.2-0.2,0.4,0.6,0.7,0.5c0.2,0,0-0.2,0-0.4
				c0.3,0,0.6,0.8,0.7,0.2c0.2,0,0.1,0.2,0.1,0.4c0.2,0,0.1-0.2,0.2-0.4c0.2,0.2,0.4,0.4,0.7,0.6c0.2,0,0.2-0.2,0.2-0.4
				c-0.7-0.3-1.4-0.6-2.1-0.9C382.1,7.1,381.6,6.7,381.3,7.1z"/>
			<path class="st0" d="M1.7,9.8c0-0.1-0.1-0.1-0.2-0.2c-0.1,0-0.2-0.1-0.3-0.1C1.3,9.7,1.4,9.9,1.7,9.8z"/>
			<path class="st0" d="M121.4,9c0-0.1,0-0.2-0.1-0.1c-0.1,0.7,0.6,0.2,0.7-0.1C121.6,8.6,121.7,9,121.4,9z"/>
			<path class="st0" d="M84.7,8.1c0.1,0.5-0.7,0-0.9-0.1C83.6,8.4,84,8.5,84,8.7c0.5,0.1,0.7-0.2,0.4,0.2c0.4,0,0.4,0.2,0.7,0.3
				c0-0.5-0.2-0.4,0.2-0.6C84.7,8.4,85.1,8.5,84.7,8.1z"/>
			<path class="st0" d="M115.7,7.7C115.7,7.6,115.7,7.5,115.7,7.7c-0.2,0.6,0.5,0.1,0.6-0.2C115.8,7.3,115.9,7.6,115.7,7.7z"/>
			<path class="st0" d="M78.9,6.8c0.1,0.5-0.7,0-0.9-0.1c-0.2,0.4,0.2,0.4,0.2,0.7c0.5,0.1,0.7-0.2,0.4,0.2c0.4,0,0.4,0.2,0.7,0.3
				c0-0.5-0.2-0.4,0.2-0.6l0,0C78.9,7,79.3,7.2,78.9,6.8z"/>
		</g>
	</g>
</g>
</svg>
